<svg id="Group_1642" data-name="Group 1642" xmlns="http://www.w3.org/2000/svg" width="91.693" height="91.706" viewBox="0 0 91.693 91.706">
  <path id="Path_4746" data-name="Path 4746" d="M160.679,328.233a8.04,8.04,0,0,1-4.033-2.328,6.832,6.832,0,0,1-1.691-4.414c-.014-.836,0-1.672,0-2.507,0-4,0-4,4.048-4h2.5c-3.844-3.674-5.537-7.99-4.895-13.09a14.1,14.1,0,0,1,5.165-9.319,14.706,14.706,0,0,1,19.047,22.409h17.008a7.869,7.869,0,0,1,.894.018,1.843,1.843,0,0,1,1.692,1.778,1.8,1.8,0,0,1-1.763,1.78c-.327.022-.656.014-.984.014H158.6a26.861,26.861,0,0,0,.026,3.344,3.109,3.109,0,0,0,3,2.713c.3.028.6.018.895.018h70.955l-.609-6.076h-.909q-8.775,0-17.549,0c-1.376,0-2.139-.614-2.179-1.708A1.769,1.769,0,0,1,214.066,315c1.133-.037,2.268-.011,3.4-.011q8.372,0,16.744,0c1.809,0,2.4.6,2.4,2.426,0,1.224-.009,2.448,0,3.672a3.24,3.24,0,1,0,6.447-.005q.014-14.195,0-28.39,0-19.389,0-38.778c0-2.885-1.414-4.944-3.878-5.662a7.589,7.589,0,0,0-1.227-.232,9.183,9.183,0,0,0-1.072-.035c-2.534,0-5.067,0-7.657,0-.046.977-.063,1.9-.138,2.811a5.336,5.336,0,0,1-10.561.436c-.16-1.025-.153-2.076-.227-3.182H188.393c-.043.9-.06,1.813-.135,2.724a5.334,5.334,0,0,1-10.572.389c-.152-1.021-.148-2.065-.212-3.06-2.791,0-5.566-.152-8.315.046a4.849,4.849,0,0,0-4.463,4.525c-.177,2.156-.037,4.338-.037,6.6h63.757c1.688,0,2.479.552,2.5,1.746.024,1.238-.786,1.829-2.509,1.829h-63.8v1.06q0,9.762,0,19.524c0,1.479-.743,2.288-1.971,2.191a1.7,1.7,0,0,1-1.579-1.45,5.924,5.924,0,0,1-.046-.893q0-14.777,0-29.554a8.677,8.677,0,0,1,5.144-8.407,9.6,9.6,0,0,1,3.6-.873c2.554-.13,5.119-.04,7.718-.04.065-1.157.05-2.26.2-3.338a5.331,5.331,0,0,1,10.585.347c.074.971.012,1.953.012,2.958h30.039c.056-1.082.035-2.152.18-3.2a5.332,5.332,0,0,1,10.608.312c.074.941.012,1.894.012,2.92,3.026,0,5.889-.088,8.743.041a10.458,10.458,0,0,1,3.687.889,8.645,8.645,0,0,1,4.912,6.12,3.5,3.5,0,0,0,.194.468V322.5a23.667,23.667,0,0,1-1.439,3.041,7.039,7.039,0,0,1-4.292,2.691Zm21.529-24.4a11.058,11.058,0,1,0-11.036,11.148A11.1,11.1,0,0,0,182.209,303.83Zm2.494-57.817c0-1.283.01-2.566,0-3.849a1.832,1.832,0,0,0-1.686-2.04,1.778,1.778,0,0,0-1.816,1.9q-.064,4.027,0,8.055a1.7,1.7,0,0,0,1.814,1.872c1.041-.029,1.678-.77,1.69-2C184.713,248.639,184.7,247.326,184.7,246.013Zm40.832.011c0-1.283.01-2.566,0-3.849a1.836,1.836,0,0,0-1.764-2.054,1.8,1.8,0,0,0-1.746,1.984c-.034,2.655-.037,5.311.005,7.966a1.7,1.7,0,0,0,1.8,1.885c1.044-.024,1.688-.764,1.7-1.993C225.545,248.65,225.535,247.337,225.535,246.025Z" transform="translate(-154.948 -236.527)" fill="#ffc825"/>
  <path id="Path_4747" data-name="Path 4747" d="M386.56,396.243a6.8,6.8,0,1,1-6.823,6.815A6.871,6.871,0,0,1,386.56,396.243Zm3.161,6.786a3.174,3.174,0,1,0-3.134,3.232A3.205,3.205,0,0,0,389.721,403.029Z" transform="translate(-329.318 -360.42)" fill="#ffc825"/>
  <path id="Path_4748" data-name="Path 4748" d="M386.528,479.3a6.8,6.8,0,1,1-6.794,6.844A6.874,6.874,0,0,1,386.528,479.3Zm3.19,6.8a3.174,3.174,0,1,0-3.15,3.218A3.205,3.205,0,0,0,389.718,486.1Z" transform="translate(-329.315 -424.847)" fill="#ffc825"/>
  <path id="Path_4749" data-name="Path 4749" d="M318.783,403.04a6.807,6.807,0,1,1-6.747-6.8A6.8,6.8,0,0,1,318.783,403.04Zm-3.6-.019a3.194,3.194,0,1,0-3.143,3.24A3.232,3.232,0,0,0,315.185,403.021Z" transform="translate(-271.475 -360.419)" fill="#ffc825"/>
  <path id="Path_4750" data-name="Path 4750" d="M318.782,486.127a6.8,6.8,0,0,1-6.858,6.777,6.8,6.8,0,1,1,6.858-6.777Zm-3.6-.033a3.194,3.194,0,1,0-3.156,3.228A3.232,3.232,0,0,0,315.184,486.093Z" transform="translate(-271.475 -424.848)" fill="#ffc825"/>
  <path id="Path_4751" data-name="Path 4751" d="M230.8,403.024a6.8,6.8,0,1,1,6.725,6.822A6.8,6.8,0,0,1,230.8,403.024Zm6.787-3.2a3.217,3.217,0,1,0,3.217,3.192A3.278,3.278,0,0,0,237.583,399.828Z" transform="translate(-213.784 -360.42)" fill="#ffc825"/>
  <path id="Path_4752" data-name="Path 4752" d="M461.2,396.244a6.8,6.8,0,1,1-6.839,6.707A6.844,6.844,0,0,1,461.2,396.244Zm-.047,3.585a3.217,3.217,0,1,0,3.211,3.2A3.276,3.276,0,0,0,461.155,399.828Z" transform="translate(-387.206 -360.42)" fill="#ffc825"/>
  <path id="Path_4753" data-name="Path 4753" d="M454.362,486.064a6.8,6.8,0,1,1,6.8,6.84A6.8,6.8,0,0,1,454.362,486.064Zm10,0a3.212,3.212,0,1,0-3.158,3.25A3.291,3.291,0,0,0,464.366,486.067Z" transform="translate(-387.205 -424.847)" fill="#ffc825"/>
  <path id="Path_4754" data-name="Path 4754" d="M518.765,339.769a1.764,1.764,0,0,1-1.77,1.755,1.783,1.783,0,1,1,.054-3.564A1.767,1.767,0,0,1,518.765,339.769Z" transform="translate(-434.398 -315.209)" fill="#ffc825"/>
  <path id="Path_4755" data-name="Path 4755" d="M383.438,588.176a1.828,1.828,0,0,1-1.782,1.765,1.76,1.76,0,0,1-1.79-1.732,1.8,1.8,0,0,1,1.8-1.832A1.884,1.884,0,0,1,383.438,588.176Z" transform="translate(-329.418 -507.907)" fill="#ffc825"/>
  <path id="Path_4758" data-name="Path 4758" d="M200.775,521.613c1.928-1.93,3.712-3.77,5.569-5.535a2.945,2.945,0,0,1,1.683-.814,1.706,1.706,0,0,1,1.446,2.62,4.169,4.169,0,0,1-.626.753q-3.154,3.169-6.321,6.325c-1.239,1.234-2.123,1.234-3.359.009-.889-.881-1.785-1.756-2.651-2.66-.92-.959-.964-1.99-.16-2.763a1.794,1.794,0,0,1,2.7.2C199.649,520.327,200.185,520.969,200.775,521.613Z" transform="translate(-186.627 -452.743)" fill="#ffc825"/>
</svg>
