<svg xmlns="http://www.w3.org/2000/svg" width="109.39" height="109.25" viewBox="0 0 109.39 109.25">
  <g id="Group_1657" data-name="Group 1657" transform="translate(-458 -2231.958)">
    <g id="Group_1656" data-name="Group 1656" transform="translate(459 2233)">
      <path id="Path_4761" data-name="Path 4761" d="M50,136.355c.18-.625.348-1.253.543-1.873a12.495,12.495,0,0,1,24.36,2.269,17.412,17.412,0,0,1,.05,1.987q0,18.159,0,36.317a4.157,4.157,0,0,0,2.553,4.178,4.026,4.026,0,0,0,5.4-3.461c.038-.416.02-.837.02-1.255q0-30.247.008-60.494a12.05,12.05,0,0,1,9.5-12.067,12.27,12.27,0,0,1,15.236,11.807q.02,40.975.006,81.95c0,2.253,1.018,3.912,2.74,4.484a4.115,4.115,0,0,0,5.428-3.954c.048-1.918,0-3.838.015-5.756a4.191,4.191,0,1,1,8.377.06,62.256,62.256,0,0,1-.211,7.829,12.1,12.1,0,0,1-10,10.2,5.494,5.494,0,0,0-.68.216h-3.356c-.669-.182-1.342-.348-2-.55A12.849,12.849,0,0,1,99.251,195.9c.077-27.038.034-54.077.034-81.115,0-.349.016-.7-.007-1.046a3.885,3.885,0,0,0-4.936-3.591c-2.03.507-3.026,1.91-3.026,4.288q0,30.2-.01,60.392a18.513,18.513,0,0,1-.22,3.016,12.369,12.369,0,0,1-24.511-2.52q-.02-18.107,0-36.214c0-.384.015-.769-.014-1.151a4.1,4.1,0,0,0-5.194-3.719,4.189,4.189,0,0,0-2.974,4.3q-.007,15.177,0,30.353a4.189,4.189,0,0,1-3.325,4.247,4.26,4.26,0,0,1-4.775-2.551c-.083-.183-.188-.356-.283-.534Z" transform="translate(-50 -101.586)" fill="#96b396"/>
      <path id="Path_4762" data-name="Path 4762" d="M405.466,267.7c-.2.731-.382,1.47-.611,2.193a12.491,12.491,0,0,1-24.287-2.119,18.731,18.731,0,0,1-.069-2.4q-.006-18,0-36c0-2.272-1.093-3.86-2.989-4.386a4.054,4.054,0,0,0-5.176,3.926c-.04,2.616-.009,5.232-.01,7.848q0,11.72-.007,23.441a4.192,4.192,0,0,1-8.233,1.1,5.026,5.026,0,0,1-.143-1.341c-.007-10.36-.035-20.72.005-31.08a12.469,12.469,0,0,1,24.934-.3c.036,12.418.011,24.836.015,37.254a3.938,3.938,0,0,0,2.918,4.188,4.023,4.023,0,0,0,5.244-4.032c.047-1.952.01-3.907.01-5.86,0-7.918-.017-15.836.011-23.755a4.167,4.167,0,0,1,6.029-3.83,4.922,4.922,0,0,1,2.364,2.924Z" transform="translate(-298.077 -192.312)" fill="#96b396"/>
    </g>
  </g>
</svg>
