<svg xmlns="http://www.w3.org/2000/svg" width="137.711" height="74.594" viewBox="0 0 137.711 74.594">
  <path id="Icon_material-group-add" data-name="Icon material-group-add" d="M45.9,36.19H28.69V18.976H17.214V36.19H0V47.666H17.214V64.88H28.69V47.666H45.9Zm57.38,5.738A17.214,17.214,0,1,0,98.062,8.3a28.313,28.313,0,0,1,5.164,16.411,28.87,28.87,0,0,1-5.164,16.411A17.155,17.155,0,0,0,103.284,41.928Zm-28.69,0A17.214,17.214,0,1,0,57.38,24.714,17.142,17.142,0,0,0,74.594,41.928Zm37.985,12.394c4.763,4.189,7.918,9.525,7.918,16.3V82.094h17.214V70.618C137.711,61.781,124.112,56.33,112.579,54.322ZM74.594,53.4c-11.476,0-34.428,5.738-34.428,17.214V82.094h68.856V70.618C109.022,59.142,86.07,53.4,74.594,53.4Z" transform="translate(0 -7.5)" fill="#105011"/>
</svg>
