<svg xmlns="http://www.w3.org/2000/svg" width="37.033" height="30.216" viewBox="0 0 37.033 30.216">
  <g id="Group_1930" data-name="Group 1930" transform="translate(-84.234 -174.313)">
    <path id="Path_4808" data-name="Path 4808" d="M84.234,191.495c.1-.665.169-1.334.293-1.994a18.243,18.243,0,0,1,7.312-11.668,17.04,17.04,0,0,1,8.339-3.369c7.6-.849,13.654,1.88,18.039,8.163a17.029,17.029,0,0,1,2.949,8.2,18.263,18.263,0,0,1-3.589,13.052,1.451,1.451,0,1,1-2.328-1.727,15.149,15.149,0,0,0,2.788-6.2,15.3,15.3,0,0,0-3.422-13.293,14.825,14.825,0,0,0-8.69-5.138,15.244,15.244,0,0,0-13.323,3.42,14.887,14.887,0,0,0-5.146,8.726,15.325,15.325,0,0,0,2.515,12.093c.109.159.229.31.336.471a1.438,1.438,0,0,1-.337,2.016,1.4,1.4,0,0,1-1.99-.308,26.329,26.329,0,0,1-1.659-2.619,17.406,17.406,0,0,1-2.021-6.945,1.728,1.728,0,0,0-.067-.274Z" transform="translate(0 0)" fill="#0f5a0f"/>
    <path id="Path_4809" data-name="Path 4809" d="M274.877,317.769a5.062,5.062,0,0,1-.7-10.073,4.926,4.926,0,0,1,2.847.424.383.383,0,0,0,.52-.108c1.46-1.472,2.93-2.934,4.394-4.4a1.452,1.452,0,1,1,2.131,1.971c-.863.892-1.752,1.76-2.63,2.638-.631.631-1.256,1.266-1.9,1.889a.319.319,0,0,0-.076.433,5.061,5.061,0,0,1-3.939,7.2C275.313,317.767,275.094,317.759,274.877,317.769Zm-.01-2.9a2.162,2.162,0,1,0-2.136-2.19A2.184,2.184,0,0,0,274.867,314.869Z" transform="translate(-172.148 -119.466)" fill="#0f5a0f"/>
  </g>
</svg>
