<svg id="Group_311" data-name="Group 311" xmlns="http://www.w3.org/2000/svg" xmlns:xlink="http://www.w3.org/1999/xlink" width="117.173" height="139.125" viewBox="0 0 117.173 139.125">
  <defs>
    <clipPath id="clip-path">
      <rect id="Rectangle_357" data-name="Rectangle 357" width="117.173" height="139.125" fill="#ffc825"/>
    </clipPath>
  </defs>
  <g id="Group_310" data-name="Group 310" clip-path="url(#clip-path)">
    <path id="Path_630" data-name="Path 630" d="M108.338,88.174c2.4,7.572-.663,13.076-8.123,14.877a2.876,2.876,0,0,0-1.674,1.011c-4.231,6.788-8.319,7.707-15.442,3.279-2.622,1.982-5.607,3.6-8.936,2.217a14.111,14.111,0,0,1-5.469-4.047c-1.1-1.382-1.928-2.4-3.75-2.845-5.894-1.444-8.968-7.1-7.448-13.009a3.569,3.569,0,0,0-.653-2.734,11.423,11.423,0,0,1,.84-15.933,6.533,6.533,0,0,0,1.744-3.352,11.1,11.1,0,0,1,6.327-8.582,4.847,4.847,0,0,0,2.084-2.15c2.557-5.608,8.666-7.561,13.769-4.123,1.336.9,2.046.7,3.269-.1C89.853,49.39,96,51.357,98.483,56.807a4.789,4.789,0,0,0,2.018,2.21,10.868,10.868,0,0,1,6.42,8.792,4.767,4.767,0,0,0,1.054,2.58c5.712,5.78,5.908,11.531.363,17.785M80.661,68.465a6.217,6.217,0,0,0,.177-.954c.015-2.175.057-4.351.007-6.525-.068-3-1.667-4.955-4.128-5.172-2.415-.213-4.229,1.418-4.671,4.549-.249,1.763-1.2,2.326-2.739,2.826a9.315,9.315,0,0,0-4.039,2.368c-1.326,1.5-1.861,3.188.875,4.391a7.071,7.071,0,0,1,4.385,6.809c-3.344.367-3.324.347-5.656-1.991-1.37-1.373-2.75-1.517-4.216,0a6.368,6.368,0,0,0,.964,9.913c2.307,1.57,2.657,2.934,1.065,5.314a5.44,5.44,0,0,0,3.438,8.136c1.734.36,3.146-.2,2.858-2.089-.462-3.045,1.769-3.483,3.563-4.5,1.8,2.827,1.852,4.765.3,8.249-1.254,2.811.613,5.833,3.625,5.317a5.962,5.962,0,0,0,3.93-3c.859-2.056,1.459-4.906-1-6.4-2.417-1.47-2.209-3.335-1.981-5.589l3.439.364c0-4.918.135-9.63-.105-14.323-.053-1.036-1.417-2.845-2.2-2.86-3.45-.063-2.98-2.542-3.581-4.835ZM95.7,76.818c.313-3.278,1.736-5.69,4.491-6.865,2.739-1.168,2.2-2.813.919-4.386a6.619,6.619,0,0,0-3.5-2.237c-2.242-.457-3.236-1.466-3.413-3.753-.19-2.459-1.963-3.718-4.262-3.719a3.986,3.986,0,0,0-4.274,3.757c-.249,2.929-.059,5.894-.059,8.962h6.01l-1.437,4.356c-3.115.227-4.528.9-4.58,2.66-.147,4.934-.051,9.875-.051,14.893l3.553-.33c-.016,2.306.245,4.179-2.112,5.544s-2.1,6.573.16,8.444a4.048,4.048,0,0,0,5.468.139c1.716-1.292,1.873-2.818.842-4.751a7.27,7.27,0,0,1,.27-8.039c1.863,1.067,4.121,1.471,3.65,4.527-.289,1.879,1.088,2.472,2.838,2.116,3.388-.688,5.506-4.94,3.585-7.875-1.672-2.554-1.429-4.011,1.136-5.729a6.332,6.332,0,0,0,.784-9.744c-1.45-1.519-3.28-1.632-4.115,0-1.393,2.729-3.424,2.244-5.9,2.025" transform="translate(-24.624 -23.288)" fill="#ffc825"/>
    <path id="Path_631" data-name="Path 631" d="M58.079,113.989l-5.208,1.291c-1.591-6.37-5.857-10.66-10.121-15.026-11.611-11.887-15.473-26.08-10.907-41.99,4.55-15.857,15.66-25.477,31.618-28.821,28.029-5.874,52.632,15.267,50.774,43.423a39.922,39.922,0,0,1-12.721,27.394c-4.423,4.16-8.2,8.685-9.929,14.981l-4.567-1.115a29.809,29.809,0,0,1,7.315-13.321c2.186-2.3,4.692-4.334,6.645-6.811,8.948-11.349,11.267-24.008,6.026-37.513-5.162-13.3-15.455-20.8-29.367-22.908a36.908,36.908,0,0,0-42.1,29.449c-2.3,11.559.372,22.115,8.326,31.087C46.689,97.3,49.8,100.27,52.3,103.7c2.193,3.011,3.7,6.519,5.781,10.293" transform="translate(-13.666 -12.975)" fill="#ffc825"/>
    <path id="Path_632" data-name="Path 632" d="M71.1,213.27c-4.01-1.25-5.472-3.978-5.462-7.885.027-9.993,1.195-11.209,11.273-11.209q12.92,0,25.839,0c6.315.007,8.541,2.221,8.548,8.466,0,.907-.03,1.815.005,2.72.152,3.9-1.4,6.65-5.441,7.9,0,2.406.039,4.837-.009,7.266-.086,4.436-2.743,7.084-7.163,7.1q-10.2.046-20.4,0c-4.421-.018-7.1-2.669-7.184-7.084-.046-2.35-.008-4.7-.008-7.281m17.4-4.695c3.894,0,7.789-.013,11.684,0,7.017.028,6.156.392,6.315-6.3.063-2.659-.966-3.481-3.507-3.453-8.6.1-17.208.045-25.812.033-7.577-.011-6.571-.5-6.705,6.724-.042,2.274.915,3.047,3.082,3.014,4.98-.076,9.962-.024,14.944-.023M88.3,222.813c2.081,0,4.162.018,6.243,0,7.344-.077,6.351.991,6.516-6.5.05-2.283-.828-3.022-3.025-2.98-5.155.1-10.314,0-15.47.039-7.6.065-6.5-1.066-6.632,6.913-.032,1.889.768,2.584,2.6,2.545,3.255-.07,6.513-.02,9.77-.018" transform="translate(-29.927 -88.531)" fill="#ffc825"/>
    <rect id="Rectangle_354" data-name="Rectangle 354" width="10.022" height="4.509" transform="translate(0 54.934)" fill="#ffc825"/>
    <rect id="Rectangle_355" data-name="Rectangle 355" width="10.065" height="4.41" transform="translate(107.108 57.228)" fill="#ffc825"/>
    <path id="Path_633" data-name="Path 633" d="M176.547,30.473l3.033,2.662-7.6,7.1-2.643-2.779,7.213-6.985" transform="translate(-77.206 -13.894)" fill="#ffc825"/>
    <path id="Path_634" data-name="Path 634" d="M40.541,34.245,37.43,36.926,30.221,29.9l3.205-2.745,7.115,7.088" transform="translate(-13.779 -12.382)" fill="#ffc825"/>
    <rect id="Rectangle_356" data-name="Rectangle 356" width="4.305" height="9.965" transform="translate(57.567 0)" fill="#ffc825"/>
    <path id="Path_635" data-name="Path 635" d="M89.044,106.724c-2.611,4.789-5.205,6-10.488,4.967l1.135-3.611,5.926-2.8,3.426,1.447" transform="translate(-35.817 -48)" fill="#ffc825"/>
    <path id="Path_636" data-name="Path 636" d="M96.562,71.324c-5.869,1.526-6.16,1.3-5.666-4.176,2.88-.39,4.331.641,5.666,4.176" transform="translate(-41.368 -30.58)" fill="#ffc825"/>
    <path id="Path_637" data-name="Path 637" d="M126.861,108.185l1.041,3.3c-4.851,1.392-7.981-.051-10.387-4.847l3.512-1.495,5.833,3.042" transform="translate(-53.58 -47.939)" fill="#ffc825"/>
    <path id="Path_638" data-name="Path 638" d="M113.047,71.144c1.555-2.95,3.287-4.5,7.036-4.593-.736,2.063-.874,4.282-2.012,5.085-.977.69-3.1-.238-5.023-.492" transform="translate(-51.543 -30.343)" fill="#ffc825"/>
  </g>
</svg>
