<svg xmlns="http://www.w3.org/2000/svg" width="101.113" height="101.135" viewBox="0 0 101.113 101.135">
  <g id="Group_1745" data-name="Group 1745" transform="translate(-108.469 -221.362)">
    <path id="Path_4801" data-name="Path 4801" d="M209.583,230.448v82.963a4.1,4.1,0,0,0-.2.532A10.7,10.7,0,0,1,202.17,322c-.545.2-1.114.334-1.672.5H117.553a3.583,3.583,0,0,0-.532-.2,10.635,10.635,0,0,1-8.544-10.421q-.015-39.949,0-79.9a10.585,10.585,0,0,1,10.6-10.607q39.941-.019,79.881,0a10.65,10.65,0,0,1,10.123,7.4C209.265,229.327,209.418,229.889,209.583,230.448Zm-5.1,50.67c0-.542,0-.834,0-1.126,0-15.8-.047-31.6.036-47.405a5.963,5.963,0,0,0-6.161-6.157c-26.232.065-52.463.034-78.7.037-3.824,0-6.087,2.25-6.088,6.056q-.008,28.789,0,57.578c0,.306.034.613.053.919l.228.121c.248-.3.473-.623.747-.9q7.918-7.933,15.846-15.855c1.573-1.573,2.912-1.571,4.486,0q7.578,7.575,15.152,15.153c.247.247.507.48.9.855a11.128,11.128,0,0,1,.773-.973q14.1-14.114,28.2-28.217c1.629-1.629,2.921-1.623,4.565.018q9.5,9.492,19,18.985C203.781,280.46,204.042,280.7,204.481,281.117Zm-22.323-15.011c-.274.321-.51.639-.786.916q-14.1,14.11-28.2,28.212c-1.656,1.656-2.914,1.662-4.559.018q-7.544-7.537-15.084-15.078c-.253-.253-.517-.495-.808-.771-.152.13-.279.224-.39.334q-9.149,9.144-18.277,18.308a2.017,2.017,0,0,0-.461,1.3c-.035,3.983.081,7.969-.051,11.948a5.9,5.9,0,0,0,6.174,6.14q39.295-.1,78.589,0a5.962,5.962,0,0,0,6.216-6.2c-.126-7.273-.047-14.549-.023-21.823a2.2,2.2,0,0,0-.7-1.725q-10.462-10.414-20.886-20.866C182.7,266.6,182.48,266.409,182.158,266.106Z" transform="translate(0)" fill="#96b396"/>
    <path id="Path_4802" data-name="Path 4802" d="M192.679,278.513a12.861,12.861,0,1,1-12.941,12.8A12.879,12.879,0,0,1,192.679,278.513Zm-.088,20.618a7.756,7.756,0,1,0-7.73-7.8A7.788,7.788,0,0,0,192.591,299.131Z" transform="translate(-52.826 -42.362)" fill="#96b396"/>
  </g>
</svg>
