<svg xmlns="http://www.w3.org/2000/svg" width="101.206" height="94.375" viewBox="0 0 101.206 94.375">
  <g id="Group_3047" data-name="Group 3047" transform="translate(6751.5 22238.501)">
    <path id="Path_4682" data-name="Path 4682" d="M93.75,548.231h6.4v-11.4H130.6v11.349h5.756V532.63h16.23v15.539h15.847l-1.387-5.674,16.254-2.953,2.186,8.688h6.474v7.5H93.75Z" transform="translate(-6843.75 -22701.359)" fill="none" stroke="#ffc825" stroke-width="3" fill-rule="evenodd"/>
    <path id="Path_4683" data-name="Path 4683" d="M148.995,242.64v10.169H118.572v-.93q0-4.173,0-8.347c0-.3-.047-.594-.072-.892Z" transform="translate(-6862.167 -22479.641)" fill="none" stroke="#ffc825" stroke-width="3" fill-rule="evenodd"/>
    <path id="Path_4684" data-name="Path 4684" d="M149.409,359.574H119.1V312.26h30.309Z" transform="translate(-6862.615 -22531.58)" fill="none" stroke="#ffc825" stroke-width="3" fill-rule="evenodd"/>
    <path id="Path_4685" data-name="Path 4685" d="M369.809,383.516l-16.256,2.948c-.317-1.229-.625-2.385-.914-3.546-2.156-8.659-4-16.1-6.147-24.764a3.413,3.413,0,0,1-.112-.809q-.01-6.915,0-13.83c0-.134.026-.267.047-.468l12.739-2.314C362.813,355.393,366.141,368.789,369.809,383.516Z" transform="translate(-7031.759 -22551.352)" fill="none" stroke="#ffc825" stroke-width="3" fill-rule="evenodd"/>
    <path id="Path_4686" data-name="Path 4686" d="M260.64,313.137h16.115v42.874H260.64Z" transform="translate(-6967.953 -22532.266)" fill="none" stroke="#ffc825" stroke-width="3" fill-rule="evenodd"/>
  </g>
</svg>
