<svg xmlns="http://www.w3.org/2000/svg" width="29.964" height="34.568" viewBox="0 0 29.964 34.568">
  <g id="Group_1932" data-name="Group 1932" transform="translate(-661.75 -263.75)">
    <g id="Group_1801" data-name="Group 1801" transform="translate(662 264)">
      <path id="Path_4814" data-name="Path 4814" d="M196.554,169.527q-5.592-3.161-11.187-6.316a1.285,1.285,0,0,1-.729-1.255q.018-12.622,0-25.243a1.132,1.132,0,0,1,1.25-1.254c6.352.021,12.7.012,19.057.012.831,0,1.191.36,1.192,1.19q0,5.6,0,11.208v.425h4.421a2.325,2.325,0,0,0-.157-.2c-.563-.566-1.13-1.128-1.692-1.695a1,1,0,0,1-.064-1.478,1.022,1.022,0,0,1,1.482.067q1.792,1.782,3.575,3.574a.994.994,0,0,1,.012,1.526q-1.792,1.806-3.6,3.6a1.014,1.014,0,0,1-1.481.047,1,1,0,0,1,.082-1.477c.608-.612,1.221-1.221,1.88-1.879h-4.461v.376q0,5.621,0,11.241c0,.848-.361,1.207-1.213,1.207h-7.1v.362c0,1.563-.018,3.127.009,4.689a1.194,1.194,0,0,1-.741,1.27Zm-9.894-31.333c-.01.087-.018.12-.018.153q0,11.523.008,23.047a.486.486,0,0,0,.222.344q4.356,2.481,8.724,4.941a2.133,2.133,0,0,0,.216.092c0-.081.01-.136.01-.19q0-11.473.006-22.947a.409.409,0,0,0-.262-.4q-3.053-1.718-6.1-3.448Zm11.158,22.99h6.3V150.347c-.755,0-1.486.008-2.217,0a1.013,1.013,0,1,1,.007-2.02c.31-.005.621,0,.931,0h1.28V137.48H189.508c.149.092.236.151.328.2,2.417,1.369,4.83,2.744,7.256,4.1a1.283,1.283,0,0,1,.735,1.252q-.021,8.847-.008,17.694Z" transform="translate(-184.635 -135.459)" fill="#0f5a0f" stroke="#0a4a0a" stroke-width="0.5"/>
    </g>
  </g>
</svg>
