<svg xmlns="http://www.w3.org/2000/svg" width="33.419" height="33.411" viewBox="0 0 33.419 33.411">
  <g id="Group_1931" data-name="Group 1931" transform="translate(-488.74 -266.29)">
    <g id="Group_1799" data-name="Group 1799" transform="translate(488.74 266.29)">
      <path id="Path_4810" data-name="Path 4810" d="M191.471,244.951a3.762,3.762,0,0,1-.71,1.517,3.056,3.056,0,0,1-2.633,1.1c-.345-.022-.482.095-.59.419-.191.573-.452,1.124-.715,1.759a7.555,7.555,0,0,1,.578.515,3.031,3.031,0,0,1,.084,4.071,20.8,20.8,0,0,1-1.819,1.823,3.034,3.034,0,0,1-4.121-.09c-.189-.177-.355-.379-.5-.534-.706.28-1.352.528-1.989.8a.414.414,0,0,0-.163.294,9.692,9.692,0,0,1-.152,1.351,3,3,0,0,1-2.913,2.181q-1.044.006-2.088,0a3,3,0,0,1-3.075-3c0-.615-.166-.911-.758-1.054a5.327,5.327,0,0,1-1.133-.487.29.29,0,0,0-.414.076,3.338,3.338,0,0,1-1.847,1.148,2.929,2.929,0,0,1-2.619-.656,21.876,21.876,0,0,1-1.846-1.841,3.037,3.037,0,0,1,.11-4.121c.177-.188.45-.362.491-.578.038-.2-.184-.444-.279-.673-.154-.37-.314-.74-.438-1.12a.329.329,0,0,0-.391-.276,3.2,3.2,0,0,1-2.271-.623,2.994,2.994,0,0,1-1.212-2.415c-.008-.728-.006-1.457,0-2.185a2.99,2.99,0,0,1,2.918-2.989c.671,0,1.009-.178,1.164-.84a8.506,8.506,0,0,1,.571-1.346c-.178-.158-.387-.318-.565-.507a3.035,3.035,0,0,1-.085-4.12,22.366,22.366,0,0,1,1.8-1.8,3.035,3.035,0,0,1,4.1.068,7.268,7.268,0,0,1,.5.566c.726-.287,1.372-.535,2.01-.8a.363.363,0,0,0,.161-.264,9.251,9.251,0,0,1,.058-1.039,3.017,3.017,0,0,1,2.39-2.466,1.9,1.9,0,0,0,.182-.064h3a.619.619,0,0,0,.117.053,3,3,0,0,1,2.445,2.445,9.263,9.263,0,0,1,.068,1.07.362.362,0,0,0,.163.261c.638.269,1.284.519,2,.8.13-.148.283-.348.463-.519a3.036,3.036,0,0,1,4.169-.09,22.349,22.349,0,0,1,1.774,1.776,3.038,3.038,0,0,1-.066,4.1,7.253,7.253,0,0,1-.578.513c.264.638.525,1.188.716,1.761.108.324.246.44.59.418a3.053,3.053,0,0,1,2.633,1.1,3.755,3.755,0,0,1,.709,1.517Zm-31.459-1.516c0,.348-.008.7,0,1.044a1.116,1.116,0,0,0,1.145,1.128c.435,0,.87,0,1.305,0a.986.986,0,0,1,1.076.8,12.667,12.667,0,0,0,1.2,2.877.973.973,0,0,1-.169,1.3c-.3.313-.616.614-.921.925a1.1,1.1,0,0,0,0,1.672q.686.7,1.384,1.384a1.1,1.1,0,0,0,1.65.009c.312-.3.614-.617.925-.921a.977.977,0,0,1,1.3-.194,12.751,12.751,0,0,0,2.938,1.216.973.973,0,0,1,.756,1.012c.005.457,0,.914,0,1.37a1.1,1.1,0,0,0,1.075,1.128c.717.023,1.436.022,2.153,0a1.1,1.1,0,0,0,1.087-1.15c0-.446,0-.892,0-1.338a.977.977,0,0,1,.776-1.028,12.6,12.6,0,0,0,2.908-1.206.973.973,0,0,1,1.3.18c.32.31.627.634.949.943a1.091,1.091,0,0,0,1.6.007q.739-.714,1.454-1.453a1.091,1.091,0,0,0,0-1.6c-.308-.322-.632-.629-.943-.949a.971.971,0,0,1-.183-1.3,12.67,12.67,0,0,0,1.207-2.907.979.979,0,0,1,1.027-.778c.446,0,.892,0,1.338,0a1.11,1.11,0,0,0,1.155-1.117q.024-1.044,0-2.088a1.11,1.11,0,0,0-1.161-1.11c-.424,0-.848,0-1.273,0a1,1,0,0,1-1.095-.817,12.665,12.665,0,0,0-1.184-2.847.979.979,0,0,1,.175-1.328c.3-.311.619-.612.921-.925a1.1,1.1,0,0,0-.006-1.65q-.685-.7-1.385-1.384a1.1,1.1,0,0,0-1.673-.006c-.319.312-.626.635-.949.943a.96.96,0,0,1-1.252.166,12.543,12.543,0,0,0-2.937-1.221.976.976,0,0,1-.77-1.033c0-.446,0-.892,0-1.338a1.1,1.1,0,0,0-1.092-1.144c-.706-.02-1.414-.018-2.121,0a1.1,1.1,0,0,0-1.1,1.135c-.005.457,0,.914,0,1.37a.973.973,0,0,1-.76,1.009,12.656,12.656,0,0,0-2.937,1.218.966.966,0,0,1-1.276-.177c-.321-.31-.628-.633-.949-.943a1.1,1.1,0,0,0-1.626-.008q-.725.705-1.431,1.43a1.093,1.093,0,0,0,0,1.625c.31.32.634.628.944.948a.967.967,0,0,1,.181,1.276,12.624,12.624,0,0,0-1.219,2.937.977.977,0,0,1-1.039.764c-.435,0-.87,0-1.305,0a1.119,1.119,0,0,0-1.175,1.164C160.007,242.783,160.012,243.109,160.013,243.435Z" transform="translate(-158.053 -226.745)" fill="#0f5a0f"/>
      <path id="Path_4812" data-name="Path 4812" d="M273.543,334.89a7.278,7.278,0,1,1-7.288,7.276A7.3,7.3,0,0,1,273.543,334.89Zm-5.308,7.285a5.3,5.3,0,1,0,5.3-5.3A5.281,5.281,0,0,0,268.236,342.176Z" transform="translate(-256.823 -325.463)" fill="#0f5a0f"/>
    </g>
  </g>
</svg>
