<svg xmlns="http://www.w3.org/2000/svg" width="35.465" height="28.248" viewBox="0 0 35.465 28.248">
  <g id="Group_1933" data-name="Group 1933" transform="translate(-364.862 -250.448)">
    <g id="Group_1804" data-name="Group 1804" transform="translate(365.162 250.758)">
      <path id="Path_4815" data-name="Path 4815" d="M186.148,180.592c-.069.673-.147,1.346-.206,2.02q-.234,2.694-.455,5.389-.184,2.2-.365,4.407c-.091,1.085-.163,2.171-.282,3.253a2.59,2.59,0,0,1-2.5,2.223c-.373,0-.746-.034-1.172-.055,0,.177,0,.353,0,.529a22.777,22.777,0,0,1-.072,2.41,2.527,2.527,0,0,1-2.515,2.153q-12.358.006-24.717,0a2.6,2.6,0,0,1-2.581-2.616q0-7.677,0-15.354a2.614,2.614,0,0,1,2.592-2.645c.646-.014,1.292,0,1.985,0,.065-.585.128-1.153.19-1.723.115-1.048.2-2.1.348-3.142a2.662,2.662,0,0,1,3.006-2.141c2.134.193,4.27.358,6.405.539,2.045.173,4.089.352,6.134.523,2.022.169,4.045.33,6.068.5,1.921.159,3.843.307,5.762.487a2.589,2.589,0,0,1,2.3,2.009.975.975,0,0,0,.067.151Zm-33.5,11.31v.37q0,3.9,0,7.795a1.313,1.313,0,0,0,1.508,1.491h24.133a1.309,1.309,0,0,0,1.508-1.49q0-3.9,0-7.795V191.9Zm28.526,4.531c.38.034.705.08,1.032.09a1.256,1.256,0,0,0,1.287-1.077c.039-.292.051-.587.076-.881q.183-2.22.366-4.44.224-2.694.452-5.388c.123-1.469.228-2.939.372-4.406a1.33,1.33,0,0,0-1.4-1.651c-.668-.041-1.334-.1-2-.158-1.762-.149-3.524-.3-5.286-.45s-3.548-.284-5.322-.433c-2.033-.17-4.066-.349-6.1-.521-1.83-.155-3.661-.3-5.49-.459a1.252,1.252,0,0,0-1.414,1.11c-.138,1.193-.267,2.387-.4,3.582-.033.308-.053.618-.081.95h21.016a2.661,2.661,0,0,1,2.887,2.877q0,5.412,0,10.825Zm-1.392-8.706h-27.11v2.767h27.11ZM152.647,186.3h27.12c0-.533.034-1.044-.009-1.549a1.153,1.153,0,0,0-1.045-1.043,3.414,3.414,0,0,0-.475-.028q-12.018,0-24.036,0a3.4,3.4,0,0,0-.441.022,1.228,1.228,0,0,0-1.111,1.18C152.628,185.342,152.647,185.807,152.647,186.3Z" transform="translate(-151.283 -175.284)" fill="#0f5a0f" stroke="#0f5a0f" stroke-width="0.6"/>
      <path id="Path_4816" data-name="Path 4816" d="M357.7,385.5c-1.02,0-2.041,0-3.061,0-.672,0-.9-.23-.9-.9q0-1.939,0-3.878c0-.636.25-.88.891-.881q3.078,0,6.157,0c.641,0,.881.246.882.886q0,1.973,0,3.946c0,.563-.24.817-.8.822C359.814,385.5,358.759,385.5,357.7,385.5Zm2.581-4.246h-5.133V384.1h5.133Z" transform="translate(-335.32 -361.23)" fill="#0f5a0f" stroke="#0f5a0f" stroke-width="0.6"/>
    </g>
  </g>
</svg>
