<svg xmlns="http://www.w3.org/2000/svg" width="100.996" height="103.745" viewBox="0 0 100.996 103.745">
  <g id="Group_3048" data-name="Group 3048" transform="translate(6902.495 22240.499)">
    <path id="Path_4960" data-name="Path 4960" d="M184.156,488.173c-2.4-3.256-4.774-6.525-7.192-9.765q-5.1-6.838-10.252-13.641c-1.563-2.072-3.556-2.074-5.116-.012-1.758,2.324-3.5,4.658-5.306,7.062-.263-.384-.477-.688-.683-1q-5.654-8.519-11.307-17.039c-1.657-2.5-3.954-2.488-5.612.016Q126.439,472.3,114.193,490.81c-.17.257-.328.523-.593.946h1.2q32.827,0,65.655.027a3.572,3.572,0,0,0,3.7-2.1Z" transform="translate(-6987.155 -22630.037)" fill="none" stroke="#ffc825" stroke-width="3"/>
    <path id="Path_4961" data-name="Path 4961" d="M296.392,211.2a3.457,3.457,0,0,0-2.1,3.692c.091,3.45.024,6.9.029,10.357a2.84,2.84,0,1,0,5.653,0c0-3.453-.063-6.907.028-10.357a3.457,3.457,0,0,0-2.1-3.692Z" transform="translate(-7146.995 -22450.199)" fill="none" stroke="#ffc825" stroke-width="3"/>
    <path id="Path_4962" data-name="Path 4962" d="M130.77,381.992a3.457,3.457,0,0,0-3.692-2.1c-3.45.091-6.9.023-10.357.028a2.84,2.84,0,1,0,0,5.652c3.453,0,6.907-.063,10.357.028a3.457,3.457,0,0,0,3.692-2.1Z" transform="translate(-6935.13 -22579.092)" fill="none" stroke="#ffc825" stroke-width="3"/>
    <path id="Path_4963" data-name="Path 4963" d="M333.609,440.755c2.516,0,5.033-.029,7.548.019a1.549,1.549,0,0,0,1.51-.811c8.365-12.663,29.292-43.309,30.01-44.262a.961.961,0,0,0-.009-1.317c-2.477-3.674-5.582-7.133-8.048-10.813-1.72-1.81-4.255-1.086-6.282,1.539-5.39,7.886-11.9,17.338-17.284,25.231q-8.71,12.774-17.425,25.543a3.01,3.01,0,0,0-.472,3.339,2.779,2.779,0,0,0,2.62,1.534C328.388,440.749,331,440.754,333.609,440.755Z" transform="translate(-7223.83 -22581.76)" fill="none" stroke="#ffc825" stroke-width="3"/>
    <path id="Path_4964" data-name="Path 4964" d="M246.929,347.525a22.344,22.344,0,0,0,5.913-25.761,22.579,22.579,0,0,0-23.091-13.7c-11.19,1.141-18.042,9.937-19.413,16.53-.848,3.092,2.879-4.646,7.148-6.487a7.86,7.86,0,0,1,8.347,1.346,3.552,3.552,0,0,1,.655.729c2.751,3.862,18.583,24.634,20.045,26.831C246.651,347.195,246.8,347.355,246.929,347.525Z" transform="translate(-7081.848 -22524.127)" fill="none" stroke="#ffc825" stroke-width="3"/>
    <path id="Path_4965" data-name="Path 4965" d="M177.8,251.887a8.737,8.737,0,0,0-1.979,1.1c-2.668,2.577-5.284,5.209-7.885,7.854a2.839,2.839,0,1,0,3.981,4.045c2.671-2.62,5.307-5.275,7.938-7.935a2.716,2.716,0,0,0,.594-3.213A3.25,3.25,0,0,0,177.8,251.887Z" transform="translate(-6997.696 -22481.287)" fill="none" stroke="#ffc825" stroke-width="3"/>
    <path id="Path_4966" data-name="Path 4966" d="M398.5,266.545a3.223,3.223,0,0,0,2.536-1.664,2.677,2.677,0,0,0-.072-2.782,4.312,4.312,0,0,0-.646-.8c-2.507-2.517-5.03-5.02-7.531-7.542a2.923,2.923,0,0,0-3.075-.914,2.792,2.792,0,0,0-1.223,4.633c2.657,2.765,5.385,5.464,8.14,8.131A7.055,7.055,0,0,0,398.5,266.545Z" transform="translate(-7270.416 -22481.912)" fill="none" stroke="#ffc825" stroke-width="3"/>
    <path id="Path_4967" data-name="Path 4967" d="M434.84,380c-1.82,0-3.641-.01-5.461,0a2.826,2.826,0,1,0-.044,5.648q5.555.02,11.111,0a2.829,2.829,0,1,0-.05-5.649C438.544,380,436.692,380,434.84,380Z" transform="translate(-7321.566 -22579.176)" fill="none" stroke="#ffc825" stroke-width="3"/>
  </g>
</svg>
