<svg xmlns="http://www.w3.org/2000/svg" width="341.115" height="229.316" viewBox="0 0 341.115 229.316">
  <g id="Group_2919" data-name="Group 2919" transform="translate(-428.166 -355.49)">
    <g id="Group_2918" data-name="Group 2918">
      <path id="Path_4962" data-name="Path 4962" d="M519.369,566.881l1.858-3.218L555.671,504l1.741-3.015,1.741-3.015,7.958-13.784,1.741-3.015,1.741-3.015,19.531-33.83,22.22,38.486,7.157-17.021-29.377-50.881-29.23,50.627-1.741,3.015-1.741,3.015-7.958,13.784-1.741,3.015-1.741,3.015-41.73,72.278-1.858,3.218-1.858,3.218-8.492,14.709h77.424l1.049-2.494,5.136-12.215H517.512Z" fill="#0a4a0a"/>
      <path id="Path_4963" data-name="Path 4963" d="M493.048,570.09h.039L484.6,584.807h-.059l6.17-10.65,1.847-3.222Z" fill="#0a4a0a"/>
    </g>
    <path id="Path_4964" data-name="Path 4964" d="M537.456,466.047l-7.526-9.766-1.493-1.965L428.166,584.807H484.6l8.489-14.717H458.014L528.2,478.17l10.237,13.3,1.2-2.063L546.4,477.7l-8.94-11.632Z" fill="#0a4a0a"/>
    <path id="Path_4965" data-name="Path 4965" d="M592.491,546.634l-1.435,3.413-5.726,13.616-1.353,3.218-1.352,3.217-6.185,14.709H769.281L672.86,355.49,626.67,465.344l-1.565,3.724-1.566,3.723-7.157,17.021-1.565,3.724-1.566,3.723-9.895,23.534-1.435,3.413-1.435,3.413-6.56,15.6Zm7.442,20.247,1.353-3.218.083-.2,1.435-3.413,1.435-3.413,6.56-15.6,1.435-3.413,1.435-3.413,8.814-20.962,1.566-3.724,1.566-3.723,7.156-17.021,1.566-3.724,1.566-3.723,36.957-87.9L747.14,570.1H598.58Z" fill="#0a4a0a"/>
    <path id="Path_4966" data-name="Path 4966" d="M667.345,484.05l8.66-4.6,52.014,71.705L672.86,426.8l-20.031,47.487L676,454.325Z" fill="#0a4a0a"/>
  </g>
</svg>
