<svg xmlns="http://www.w3.org/2000/svg" width="42.034" height="25.008" viewBox="0 0 42.034 25.008">
  <g id="Union_24" data-name="Union 24" transform="translate(-9767.229 -22051.498)" fill="none">
    <path d="M9797.529,22076.158a3.44,3.44,0,0,1-2.62-1.793,54.268,54.268,0,0,1-3.158-6.395,5.1,5.1,0,0,1,.381-3.6,32.89,32.89,0,0,1,2.466-3.406c1.286-1.506,2.932.3,2.932.3s.687.756,2.121,2.563c1.425,1.789,3.22,4.357,4.81,6.781,3.285,5.008,4.8,5.891,4.8,5.891s-3.552-.021-6.91,0c-.083,0-.166,0-.247,0A42.675,42.675,0,0,1,9797.529,22076.158Zm-14.921.162c-1.225-.248-.226-1.453-.226-1.453s4.2-5.229,4.969-5.836,1.042-.166,1.286,0a13.074,13.074,0,0,1,2.293,2.521c1.163,1.559,1.973,2.715,2.748,3.814s-.971,1.027-.971,1.027-3.012.059-5.77.059A39.484,39.484,0,0,1,9782.608,22076.32Zm-12.548-5.113c1.446-2.844,3.113-6.41,4.792-9.211,1.5-2.5,3.092-4.4,3.873-4.408,1.235-.018,2.243,2.07,3.823,4.432,1.124,1.68,1.163,3.244,1.506,4.877a3.87,3.87,0,0,1-.3,2.123,43.755,43.755,0,0,1-3.29,5.842,2.893,2.893,0,0,1-2.727,1.465c-1.967-.092-10.51.127-10.51.127S9768.36,22074.543,9770.061,22071.207Zm16.371-7.783c-.011-.014-1.423-1.33-2.476-2.5-.205-.223-.395-.42-.555-.594a8.592,8.592,0,0,1-.676-.76,1.71,1.71,0,0,1-.205-2.084c.011-.018,1.136-1.756,2.405-3.314a12.692,12.692,0,0,1,2.491-2.389,1.576,1.576,0,0,1,.871-.289c1.069,0,1.778,1.295,1.79,1.311s.919,1.357,1.732,2.539c.838,1.207,1.436,2.055,1.785,2.523.848,1.141-.481,2.43-.493,2.447a21.473,21.473,0,0,1-3.689,3.582,2.084,2.084,0,0,1-1.119.33A2.98,2.98,0,0,1,9786.432,22063.424Zm.876-4.064a1.665,1.665,0,0,0-.415,1.107c.011.758.459,1.535,1.2,1.535.68,0,1.157-.627,1.157-1.535a1.337,1.337,0,0,0-1.157-1.482h-.012A1.056,1.056,0,0,0,9787.308,22059.359Z" stroke="none"/>
    <path d="M 9802.1416015625 22074.60546875 C 9802.1962890625 22074.60546875 9802.2529296875 22074.60546875 9802.30859375 22074.603515625 L 9802.341796875 22074.603515625 C 9803.13671875 22074.599609375 9804.0048828125 22074.595703125 9804.9296875 22074.595703125 C 9804.3271484375 22073.798828125 9803.642578125 22072.83203125 9802.87109375 22071.65625 C 9801.1484375 22069.02734375 9799.4326171875 22066.607421875 9798.162109375 22065.013671875 C 9796.888671875 22063.41015625 9796.2197265625 22062.65625 9796.1337890625 22062.55859375 C 9796.0712890625 22062.49609375 9795.984375 22062.42578125 9795.90234375 22062.369140625 C 9794.87890625 22063.6015625 9793.931640625 22065.083984375 9793.76953125 22065.33984375 C 9793.76953125 22065.33984375 9793.7685546875 22065.341796875 9793.7685546875 22065.341796875 L 9793.763671875 22065.349609375 C 9793.751953125 22065.3671875 9793.74609375 22065.376953125 9793.7451171875 22065.37890625 L 9793.767578125 22065.34375 C 9793.697265625 22065.484375 9793.3359375 22066.287109375 9793.5791015625 22067.4375 C 9794.369140625 22069.59765625 9796.53515625 22073.380859375 9796.556640625 22073.419921875 L 9796.58984375 22073.478515625 C 9796.642578125 22073.580078125 9797.1005859375 22074.244140625 9797.572265625 22074.2578125 C 9797.9091796875 22074.265625 9798.259765625 22074.310546875 9798.703125 22074.369140625 C 9799.4775390625 22074.46875 9800.5390625 22074.60546875 9802.1064453125 22074.60546875 C 9802.1181640625 22074.60546875 9802.1298828125 22074.60546875 9802.1416015625 22074.60546875 M 9786.9384765625 22074.552734375 C 9788.2685546875 22074.552734375 9789.6689453125 22074.5390625 9790.751953125 22074.525390625 C 9790.353515625 22073.970703125 9789.916015625 22073.369140625 9789.40625 22072.6875 C 9788.83203125 22071.916015625 9788.359375 22071.384765625 9788.033203125 22071.048828125 C 9787.3671875 22071.794921875 9786.236328125 22073.142578125 9785.091796875 22074.541015625 C 9785.5869140625 22074.548828125 9786.1943359375 22074.552734375 9786.9384765625 22074.552734375 M 9770.4970703125 22074.478515625 C 9772.3544921875 22074.44140625 9774.607421875 22074.404296875 9776.201171875 22074.404296875 C 9776.94140625 22074.404296875 9777.4736328125 22074.412109375 9777.830078125 22074.427734375 C 9777.8564453125 22074.4296875 9777.8818359375 22074.4296875 9777.908203125 22074.4296875 C 9778.4248046875 22074.4296875 9778.6787109375 22074.13671875 9778.767578125 22074.00390625 L 9778.78515625 22073.953125 L 9778.9013671875 22073.783203125 C 9778.91796875 22073.7578125 9780.642578125 22071.240234375 9782.025390625 22068.234375 C 9782.169921875 22067.908203125 9782.2265625 22067.44140625 9782.1943359375 22067.283203125 C 9782.11328125 22066.8984375 9782.05078125 22066.529296875 9781.9892578125 22066.171875 C 9781.787109375 22064.990234375 9781.626953125 22064.05859375 9780.9697265625 22063.076171875 C 9780.6357421875 22062.578125 9780.3359375 22062.10546875 9780.0458984375 22061.6484375 C 9779.654296875 22061.03125 9779.158203125 22060.25 9778.7841796875 22059.783203125 C 9778.28125 22060.310546875 9777.4599609375 22061.34375 9776.482421875 22062.97265625 C 9775.279296875 22064.98046875 9774.0869140625 22067.384765625 9772.9326171875 22069.7109375 C 9772.5224609375 22070.537109375 9772.134765625 22071.3203125 9771.7529296875 22072.0703125 C 9771.2890625 22072.98046875 9770.8662109375 22073.787109375 9770.4970703125 22074.478515625 M 9791.0849609375 22059.75 C 9791.2568359375 22059.556640625 9791.4306640625 22059.353515625 9791.60546875 22059.146484375 C 9791.62109375 22059.126953125 9791.6376953125 22059.107421875 9791.6533203125 22059.08984375 C 9791.6904296875 22059.046875 9791.720703125 22059.013671875 9791.73828125 22058.99609375 C 9791.80859375 22058.921875 9791.865234375 22058.845703125 9791.9072265625 22058.78125 C 9791.5537109375 22058.298828125 9791.0302734375 22057.5546875 9790.25 22056.431640625 L 9790.2451171875 22056.42578125 C 9789.240234375 22054.96484375 9788.775390625 22054.2890625 9788.544921875 22053.9296875 C 9788.4873046875 22053.853515625 9788.4501953125 22053.7890625 9788.43359375 22053.76171875 C 9788.380859375 22053.669921875 9788.318359375 22053.5859375 9788.259765625 22053.517578125 C 9787.8349609375 22053.841796875 9787.099609375 22054.51171875 9786.3994140625 22055.375 C 9785.3955078125 22056.607421875 9784.4853515625 22057.9609375 9784.2080078125 22058.380859375 C 9784.2177734375 22058.396484375 9784.228515625 22058.412109375 9784.2421875 22058.4296875 L 9784.2470703125 22058.435546875 C 9784.353515625 22058.578125 9784.5244140625 22058.759765625 9784.7744140625 22059.01953125 L 9784.798828125 22059.046875 C 9784.869140625 22059.123046875 9784.9462890625 22059.205078125 9785.02734375 22059.291015625 C 9785.06640625 22059.333984375 9785.107421875 22059.375 9785.1484375 22059.419921875 C 9785.30078125 22058.91796875 9785.5595703125 22058.453125 9785.908203125 22058.07421875 C 9786.494140625 22057.435546875 9787.265625 22057.083984375 9788.0830078125 22057.083984375 L 9788.12890625 22057.083984375 C 9789.6005859375 22057.111328125 9790.794921875 22058.234375 9791.0849609375 22059.75 M 9802.1064453125 22076.505859375 C 9799.5859375 22076.505859375 9798.2431640625 22076.171875 9797.529296875 22076.158203125 C 9795.8330078125 22076.1171875 9794.9091796875 22074.365234375 9794.9091796875 22074.365234375 C 9794.9091796875 22074.365234375 9792.576171875 22070.30078125 9791.7509765625 22067.970703125 C 9791.2470703125 22065.83984375 9792.1318359375 22064.375 9792.1318359375 22064.375 C 9792.1318359375 22064.375 9793.3134765625 22062.474609375 9794.59765625 22060.96875 C 9795.8837890625 22059.46484375 9797.529296875 22061.26953125 9797.529296875 22061.26953125 C 9797.529296875 22061.26953125 9798.2158203125 22062.025390625 9799.650390625 22063.83203125 C 9801.0751953125 22065.62109375 9802.8701171875 22068.189453125 9804.4599609375 22070.61328125 C 9807.7451171875 22075.62109375 9809.263671875 22076.50390625 9809.263671875 22076.50390625 C 9809.2626953125 22076.501953125 9805.7109375 22076.478515625 9802.353515625 22076.50390625 C 9802.2705078125 22076.505859375 9802.1875 22076.505859375 9802.1064453125 22076.505859375 Z M 9786.9384765625 22076.453125 C 9784.962890625 22076.453125 9783.1181640625 22076.423828125 9782.6083984375 22076.3203125 C 9781.3837890625 22076.072265625 9782.3828125 22074.8671875 9782.3828125 22074.8671875 C 9782.3828125 22074.8671875 9786.58203125 22069.638671875 9787.3515625 22069.03125 C 9788.1220703125 22068.427734375 9788.3935546875 22068.865234375 9788.6376953125 22069.03125 C 9788.8759765625 22069.193359375 9789.767578125 22069.990234375 9790.9306640625 22071.552734375 C 9792.09375 22073.111328125 9792.9033203125 22074.267578125 9793.6787109375 22075.3671875 C 9794.455078125 22076.470703125 9792.70703125 22076.392578125 9792.7080078125 22076.39453125 C 9792.7080078125 22076.39453125 9789.6962890625 22076.453125 9786.9384765625 22076.453125 Z M 9767.2294921875 22076.453125 C 9767.2294921875 22076.453125 9768.3603515625 22074.54296875 9770.060546875 22071.20703125 C 9771.5068359375 22068.36328125 9773.173828125 22064.796875 9774.8525390625 22061.99609375 C 9776.3544921875 22059.4921875 9777.9443359375 22057.599609375 9778.7255859375 22057.587890625 C 9778.73046875 22057.587890625 9778.736328125 22057.587890625 9778.7412109375 22057.587890625 C 9779.9697265625 22057.587890625 9780.9755859375 22059.66796875 9782.548828125 22062.01953125 C 9783.6728515625 22063.69921875 9783.7119140625 22065.263671875 9784.0546875 22066.896484375 C 9784.1884765625 22067.54296875 9784.0224609375 22068.42578125 9783.755859375 22069.01953125 C 9782.28125 22072.228515625 9780.4658203125 22074.861328125 9780.4658203125 22074.861328125 C 9780.4658203125 22074.861328125 9779.744140625 22076.330078125 9777.908203125 22076.330078125 C 9777.8525390625 22076.330078125 9777.796875 22076.328125 9777.7392578125 22076.326171875 C 9777.3984375 22076.310546875 9776.859375 22076.302734375 9776.201171875 22076.302734375 C 9773.06640625 22076.302734375 9767.2294921875 22076.453125 9767.2294921875 22076.453125 Z M 9788.2939453125 22064.23046875 C 9787.2509765625 22064.23046875 9786.443359375 22063.43359375 9786.431640625 22063.423828125 C 9786.4208984375 22063.41015625 9785.0087890625 22062.09375 9783.9560546875 22060.927734375 C 9783.7509765625 22060.705078125 9783.5615234375 22060.5078125 9783.4013671875 22060.333984375 C 9783.119140625 22060.0390625 9782.90234375 22059.810546875 9782.7255859375 22059.57421875 C 9781.8330078125 22058.390625 9782.515625 22057.5 9782.5205078125 22057.490234375 C 9782.53125 22057.47265625 9783.65625 22055.734375 9784.92578125 22054.17578125 C 9785.828125 22053.0625 9786.8466796875 22052.158203125 9787.4169921875 22051.787109375 C 9787.705078125 22051.595703125 9788 22051.498046875 9788.2880859375 22051.498046875 C 9789.357421875 22051.498046875 9790.06640625 22052.79296875 9790.078125 22052.80859375 C 9790.08203125 22052.8203125 9790.9970703125 22054.166015625 9791.810546875 22055.34765625 C 9792.6484375 22056.5546875 9793.24609375 22057.40234375 9793.595703125 22057.87109375 C 9794.443359375 22059.01171875 9793.1142578125 22060.30078125 9793.1025390625 22060.318359375 C 9793.0791015625 22060.33984375 9790.9365234375 22062.9609375 9789.4130859375 22063.900390625 C 9789.0576171875 22064.12109375 9788.6865234375 22064.23046875 9788.2939453125 22064.23046875 Z M 9788.0830078125 22058.984375 C 9787.80078125 22058.984375 9787.529296875 22059.1171875 9787.3076171875 22059.359375 C 9787.041015625 22059.6484375 9786.892578125 22060.064453125 9786.892578125 22060.466796875 C 9786.9033203125 22061.224609375 9787.3515625 22062.001953125 9788.0947265625 22062.001953125 C 9788.7744140625 22062.001953125 9789.251953125 22061.375 9789.251953125 22060.466796875 C 9789.251953125 22059.63671875 9788.75390625 22058.99609375 9788.0947265625 22058.984375 L 9788.0830078125 22058.984375 Z" stroke="none" fill="#0f5a0f"/>
  </g>
</svg>
