<svg id="Group_2924" data-name="Group 2924" xmlns="http://www.w3.org/2000/svg" width="22" height="38" viewBox="0 0 22 38">
  <g id="Group_1087" data-name="Group 1087">
    <path id="Path_1590" data-name="Path 1590" d="M242.033,328.042l-4.773-4.555q-4.965-4.737-9.933-9.471a2.876,2.876,0,0,1-.992-2.487,2.556,2.556,0,0,1,1.492-2.21,2.125,2.125,0,0,1,2.5.451c1.234,1.153,2.45,2.33,3.674,3.5q6.565,6.258,13.133,12.513a2.8,2.8,0,0,1,.973,2.89,3.414,3.414,0,0,1-.857,1.511q-8.482,8.145-17.011,16.231a2.24,2.24,0,0,1-3.456-.282,2.894,2.894,0,0,1,.379-3.881q7.21-6.88,14.424-13.755C241.726,328.359,241.861,328.216,242.033,328.042Z" transform="translate(-226.203 -309.096)" fill="#bff2bf" fill-rule="evenodd"/>
  </g>
</svg>
