<svg xmlns="http://www.w3.org/2000/svg" width="30.01" height="30.01" viewBox="0 0 30.01 30.01">
  <g id="Icon_feather-sun" data-name="Icon feather-sun" transform="translate(-0.5 -0.5)">
    <path id="Path_4828" data-name="Path 4828" d="M23.232,16.866A6.366,6.366,0,1,1,16.866,10.5,6.366,6.366,0,0,1,23.232,16.866Z" transform="translate(-1.361 -1.361)" fill="none" stroke="#fff" stroke-linecap="round" stroke-linejoin="round" stroke-width="2"/>
    <path id="Path_4829" data-name="Path 4829" d="M18,1.5V4.046" transform="translate(-2.495)" fill="none" stroke="#fff" stroke-linecap="round" stroke-linejoin="round" stroke-width="2"/>
    <path id="Path_4830" data-name="Path 4830" d="M18,31.5v2.546" transform="translate(-2.495 -4.537)" fill="none" stroke="#fff" stroke-linecap="round" stroke-linejoin="round" stroke-width="2"/>
    <path id="Path_4831" data-name="Path 4831" d="M6.33,6.33,8.138,8.138" transform="translate(-0.73 -0.73)" fill="none" stroke="#fff" stroke-linecap="round" stroke-linejoin="round" stroke-width="2"/>
    <path id="Path_4832" data-name="Path 4832" d="M27.54,27.54l1.808,1.808" transform="translate(-3.938 -3.938)" fill="none" stroke="#fff" stroke-linecap="round" stroke-linejoin="round" stroke-width="2"/>
    <path id="Path_4833" data-name="Path 4833" d="M1.5,18H4.046" transform="translate(0 -2.495)" fill="none" stroke="#fff" stroke-linecap="round" stroke-linejoin="round" stroke-width="2"/>
    <path id="Path_4834" data-name="Path 4834" d="M31.5,18h2.546" transform="translate(-4.537 -2.495)" fill="none" stroke="#fff" stroke-linecap="round" stroke-linejoin="round" stroke-width="2"/>
    <path id="Path_4835" data-name="Path 4835" d="M6.33,29.348,8.138,27.54" transform="translate(-0.73 -3.938)" fill="none" stroke="#fff" stroke-linecap="round" stroke-linejoin="round" stroke-width="2"/>
    <path id="Path_4836" data-name="Path 4836" d="M27.54,8.138,29.348,6.33" transform="translate(-3.938 -0.73)" fill="none" stroke="#fff" stroke-linecap="round" stroke-linejoin="round" stroke-width="2"/>
  </g>
</svg>
