<svg id="Group_309" data-name="Group 309" xmlns="http://www.w3.org/2000/svg" xmlns:xlink="http://www.w3.org/1999/xlink" width="132.669" height="115.052" viewBox="0 0 132.669 115.052">
  <defs>
    <clipPath id="clip-path">
      <rect id="Rectangle_353" data-name="Rectangle 353" width="132.669" height="115.052" fill="#ffc825"/>
    </clipPath>
  </defs>
  <g id="Group_308" data-name="Group 308" clip-path="url(#clip-path)">
    <path id="Path_618" data-name="Path 618" d="M66.235,114.089a74.375,74.375,0,0,1-27.829-7.194C23.94,100.082,11.791,90.224,1.2,78.325c-1.6-1.8-1.612-3.091.005-4.873C15.473,57.732,31.779,45.143,52.8,39.868c14.38-3.608,28.147-1.236,41.367,4.955C108.65,51.6,120.792,61.478,131.41,73.349c1.668,1.864,1.688,3.223,0,5.08-13.724,15.107-29.395,27.328-49.4,32.891-5.119,1.422-10.508,1.872-15.773,2.768M99.613,75.937a33.266,33.266,0,1,0-33.444,33.217A33.351,33.351,0,0,0,99.613,75.937M38.485,50.06A111.092,111.092,0,0,0,5,75.909a117.9,117.9,0,0,0,34.1,26.356c-14.651-16.859-12.791-38.33-.613-52.205m55.721,51.676a111.528,111.528,0,0,0,33.486-25.882A113.247,113.247,0,0,0,94.178,50c13.576,15.718,12.719,37.17.028,51.739" transform="translate(0 -18.334)" fill="#ffc825"/>
    <path id="Path_619" data-name="Path 619" d="M75.056,21.738,68.435,8.479l3.941-1.992,6.64,13.264-3.96,1.988" transform="translate(-32.871 -3.116)" fill="#ffc825"/>
    <path id="Path_620" data-name="Path 620" d="M173.2,6.458l3.945,2c-2.216,4.436-4.363,8.735-6.62,13.253l-3.95-1.97L173.2,6.458" transform="translate(-80.009 -3.102)" fill="#ffc825"/>
    <path id="Path_621" data-name="Path 621" d="M75.058,185.642l3.941,2L72.381,200.9l-3.952-1.967,6.629-13.293" transform="translate(-32.868 -89.169)" fill="#ffc825"/>
    <path id="Path_622" data-name="Path 622" d="M177.131,198.945l-3.942,2-6.644-13.271,3.947-1.974,6.639,13.248" transform="translate(-79.996 -89.195)" fill="#ffc825"/>
    <rect id="Rectangle_350" data-name="Rectangle 350" width="3.922" height="15.314" transform="translate(64.422)" fill="#ffc825"/>
    <rect id="Rectangle_351" data-name="Rectangle 351" width="3.923" height="15.312" transform="translate(64.384 99.739)" fill="#ffc825"/>
    <path id="Path_623" data-name="Path 623" d="M213.241,167.789l8.835,11.046-3.393,2.79-8.874-11.044,3.432-2.792" transform="translate(-100.777 -80.593)" fill="#ffc825"/>
    <path id="Path_624" data-name="Path 624" d="M25.491,27.022l8.838,11.05-3.44,2.783-8.8-11.012,3.4-2.821" transform="translate(-10.611 -12.979)" fill="#ffc825"/>
    <path id="Path_625" data-name="Path 625" d="M209.637,38.165l8.874-11.085,3.412,2.774L213.158,40.86l-3.521-2.695" transform="translate(-100.694 -13.007)" fill="#ffc825"/>
    <path id="Path_626" data-name="Path 626" d="M25.452,181.719l-3.4-2.8,8.77-11.013,3.5,2.68-8.871,11.137" transform="translate(-10.592 -80.648)" fill="#ffc825"/>
    <path id="Path_627" data-name="Path 627" d="M85.506,68.452c-.579-3.761-.332-7.861,3.569-8.774,3.916-.917,8.769-2.063,11.792,3.394,2.3-4.194,5.886-3.87,9.44-3.791,3.83.085,5.928,2.108,6.28,5.93.075.814.925,1.58,1.488,2.315a1.744,1.744,0,0,0,.908.474c5.239,1.413,7.48,4.71,6.386,10.114-.32,1.579.486,2.434,1.873,2.88a3.382,3.382,0,0,1,2.527,3.948,13.14,13.14,0,0,0,.006,2.851c.575,4.261-.232,7.492-5.307,8.171-.53.071-1.238,1.713-1.2,2.595.12,2.514-.368,4.653-2.537,6.122a3.972,3.972,0,0,1-2.259.981,4.148,4.148,0,0,0-4.843,2.9c-1.575,4.019-4.84,4.435-8.286,3.7-1.6-.342-2.942-1.864-4.657-3.024a6.868,6.868,0,0,1-7.573,3.105,7.775,7.775,0,0,1-3.4-1.768c-.985-.913-1.461-2.356-2.382-3.364a4.252,4.252,0,0,0-2.448-1.406c-4.22-.362-6.327-2.339-6.107-6.57.122-2.352-.621-3.606-2.883-3.909-3.182-.427-4.115-2.333-3.774-5.295a19.142,19.142,0,0,0,0-4.147c-.265-2.546.492-4.3,3.061-5.245.625-.23.939-1.359,1.342-2.105.109-.2.014-.51.018-.77.121-7.886-1.179-6.646,6.9-8.629.583-.143,1.144-.378,2.059-.685m22.294,8.42c-.339-5.012-.338-5.011,2.807-8.224.363-.371,1.038-.761,1.022-1.118-.058-1.25-.016-3.354-.616-3.588-3.366-1.316-7.821.365-7.863,4.632-.114,11.506,0,23.014-.067,34.52-.015,2.645,1.778,3.958,3.629,4.843,2.014.963,2.708-1.161,3.608-2.461a19.023,19.023,0,0,1,1.927-2.754,4.287,4.287,0,0,1,2.338-1.256c4.115-.429,4.924-1.213,3.956-5.21-.323-1.333-1.7-2.493-2.788-3.539a3.764,3.764,0,0,1-1.1-4.548c1.979-.313,3.461-.432,4.732,1.7,1.626,2.728,2.649,2.619,5.907.674-.084-6.169,1.8-6.03-6.528-7.153.114-1.806-1.385-4.18,1.975-4.565.062-5.921,1.513-4.312-6.566-8.146l-3.068,6.191ZM87.211,88.1l.859.617c-.728,1.406-1.383,2.858-2.215,4.2-.444.716-1.568,1.153-1.736,1.869a19.53,19.53,0,0,0-.564,5.67c.025.386,2.057.549,3.1.981a10.422,10.422,0,0,1,3.357,1.814c1.086,1.069,1.625,2.7,2.716,3.76.64.624,2.279,1.163,2.8.795,1.69-1.193,3.383-2.4,3.347-5.083-.148-10.993-.061-21.988-.062-32.983,0-4.45-2.669-6.768-7.083-6.093a2.522,2.522,0,0,0-1.517.772c-.776,1-.327,5.249.81,6.018,4.09,2.765,3.326,6.746,3.08,10.785H89.85c0-1.864.5-3.8-.147-5.211-.591-1.3-2.65-3.074-3.654-2.846-5.765,1.312-5.121.022-4.834,5.62,3.25.558,1.794,2.865,1.9,4.606-2.356.908-5.914-.887-6.447,2.846-.246,1.722-1.456,4.278,1.743,5.352,3.548,1.191,3.88-2.03,5.4-3.486Z" transform="translate(-34.613 -28.294)" fill="#ffc825"/>
    <path id="Path_628" data-name="Path 628" d="M140.269,119.566h3.862c-.3,3.5,1.608,7.376-2.7,10.019l-2.27-2.827c.336-2.177.7-4.513,1.111-7.192" transform="translate(-66.841 -57.431)" fill="#ffc825"/>
    <rect id="Rectangle_352" data-name="Rectangle 352" width="4.036" height="4.097" transform="translate(73.189 53.326)" fill="#ffc825"/>
    <path id="Path_629" data-name="Path 629" d="M111.462,127.45l-2.243,2.164c-4.4-2.35-2.4-6.36-2.841-9.959h3.988c.339,2.409.668,4.747,1.1,7.794" transform="translate(-51.057 -57.474)" fill="#ffc825"/>
  </g>
</svg>
