<svg xmlns="http://www.w3.org/2000/svg" width="98.06" height="131.267" viewBox="0 0 98.06 131.267">
  <g id="Group_1437" data-name="Group 1437" transform="translate(-271 -1249)">
    <g id="Group_1425" data-name="Group 1425" transform="translate(7711 -4108)">
      <g id="introvert" transform="translate(-7440 5357)">
        <path id="Path_4637" data-name="Path 4637" d="M55.283,132.266a2.559,2.559,0,0,1-1.377-2.64c.039-4.785.021-9.568.015-14.354,0-3.235-1.269-4.526-4.472-4.541q-8.841-.039-17.684-.051a9.044,9.044,0,0,1-7-2.886,9.692,9.692,0,0,1-2.287-5.189c-.863-5.177-1.756-10.349-2.644-15.521-.051-.293-.148-.578-.251-.976-1.644,0-3.3.009-4.963,0-2.659-.021-4.02-1.391-4-4.044a32.152,32.152,0,0,1,5.327-17.778,11.328,11.328,0,0,0,2.032-8.107,81.449,81.449,0,0,1-.612-13.16,42.567,42.567,0,0,1,13.819-29.9A43.122,43.122,0,0,1,57.636,1.2a4.1,4.1,0,0,0,.726-.2h6.665c2.807.5,5.658.829,8.416,1.522A46.934,46.934,0,0,1,106.758,61.29c-.865,2.989-1.785,5.964-2.708,8.936-.426,1.37-1.342,1.923-2.47,1.58s-1.571-1.321-1.193-2.68c1.21-4.352,2.745-8.641,3.588-13.064,2.582-13.549-.722-25.716-9.662-36.165C85.279,9.34,73.571,4.459,59.732,4.9c-19.422.621-36.2,16.086-38.263,35.4-.464,4.333,0,8.771.118,13.158.056,2.132.452,4.263.394,6.388A7.529,7.529,0,0,1,20.9,63.42c-2.424,3.941-4.8,7.889-5.692,12.505-.392,2.03-.595,4.1-.908,6.33,2.34,0,4.378-.008,6.416,0,1.726.008,2.248.462,2.546,2.188Q24.8,93.4,26.343,102.358a4.963,4.963,0,0,0,5.344,4.461q8.971.045,17.942.058c5.054.015,8.131,3.081,8.146,8.15.013,4.826-.021,9.655.019,14.481a3.069,3.069,0,0,1-1.225,2.76Q55.923,132.265,55.283,132.266Z" transform="translate(-10.621 -1.001)" fill="#fec82e"/>
        <path id="Path_4640" data-name="Path 4640" d="M55.068,75.208q0-9.421.009-18.842a6.4,6.4,0,0,1,.2-1.766c1.177-4.01,2.4-8.007,3.588-12.015.3-1.017.942-1.8,1.98-1.61A3.368,3.368,0,0,1,62.6,42.365c.221.3.026.989-.113,1.462-1.055,3.6-2.162,7.189-3.205,10.794A8.759,8.759,0,0,0,58.934,57q-.034,18.459-.015,36.917c0,.428.019.858-.019,1.282a1.9,1.9,0,0,1-3.753.253,5.323,5.323,0,0,1-.075-1.274Q55.067,84.694,55.068,75.208Z" transform="translate(28.338 34.012)" fill="#fec82e"/>
      </g>
    </g>
    <g id="Group_1436" data-name="Group 1436" transform="translate(3)">
      <g id="open-padlock" transform="translate(-156.234 1142.133)">
        <path id="Path_4647" data-name="Path 4647" d="M566.347,166.3a6.168,6.168,0,0,1-1.364,2.909,5.141,5.141,0,0,1-5,1.675,5.06,5.06,0,0,1-3.957-3.4,5.146,5.146,0,0,1,.346-4.411c.044-.081.076-.169.137-.3h-5.036v.629q0,5.5,0,11c0,1.328-.375,1.715-1.679,1.715q-16.107,0-32.213,0c-1.337,0-1.692-.356-1.692-1.692q0-11.8,0-23.6c0-1.357.357-1.708,1.738-1.708h24.085c.06-.086.1-.118.1-.15-.019-2.514.1-5.04-.1-7.541a8.1,8.1,0,0,0-15.875-1.138,17.787,17.787,0,0,0-.294,3.533c-.048,1.323-.386,1.7-1.7,1.7-1.288,0-2.576.007-3.863,0-1.025-.007-1.432-.426-1.459-1.44a17.249,17.249,0,0,1,1.04-7.173,14.734,14.734,0,0,1,10.129-9.094,14.932,14.932,0,0,1,16.454,6.018,15.084,15.084,0,0,1,2.687,8.893q.006,3.031,0,6.062c0,.077.016.154.036.328.328,0,.655,0,.982,0,1.2.01,1.611.421,1.612,1.607q0,4.458,0,8.915v.677h5.015c-.062-.153-.107-.295-.175-.425a5.319,5.319,0,1,1,9.921-3.493c.025.133.072.263.108.394v1.189a5.991,5.991,0,0,1-1.962,3.571,5.844,5.844,0,0,1,1.962,3.563Q566.347,165.71,566.347,166.3Zm-17.3,7.384v-10.95c-3.433,0-6.82,0-10.207.016-.142,0-.356.209-.412.365a4.917,4.917,0,0,1-3.11,3.13.584.584,0,0,0-.461.682c.02.911.047,1.825-.014,2.733a1.472,1.472,0,0,1-.444,1.022,1.642,1.642,0,0,1-1.2.177c-.532-.133-.71-.654-.718-1.181-.014-.931-.017-1.863,0-2.794a.557.557,0,0,0-.434-.643,4.867,4.867,0,0,1-3.3-5.348,4.7,4.7,0,0,1,3.126-3.992,4.6,4.6,0,0,1,5.169,1,16.076,16.076,0,0,1,1.7,2.394h10.312v-8.743H518.33v22.13Zm-4.825-24.571c.61,0,1.144-.026,1.674.008.447.029.575-.129.57-.572-.022-1.981,0-3.962-.012-5.942a12.681,12.681,0,0,0-4.006-9.456,12.549,12.549,0,0,0-7.546-3.451v2.209c.226.049.418.1.612.133a10.363,10.363,0,0,1,7.289,5.117,10.556,10.556,0,0,1,1.421,5.508C544.223,144.789,544.223,146.906,544.223,149.118Zm-21.138-6c.206-6.235,3.329-9.944,9.348-11.251v-2.142a12.651,12.651,0,0,0-11.427,13.393ZM563.96,157.4a2.94,2.94,0,1,0-2.953,2.947A2.967,2.967,0,0,0,563.96,157.4Zm-3.016,11.2a2.932,2.932,0,1,0-2.86-3.014A2.94,2.94,0,0,0,560.944,168.606Zm-25.024-8.252A2.5,2.5,0,0,0,533.1,159a2.612,2.612,0,0,0,.21,5.136c.916.146,2.365-.45,2.556-1.351-.015-.01-.029-.028-.044-.028-.633-.007-1.267-.008-1.9-.018-.865-.013-1.418-.474-1.428-1.182s.55-1.189,1.4-1.2C534.55,160.348,535.2,160.354,535.92,160.354Z" transform="translate(-59.677)" fill="#fec82e"/>
        <path id="Path_4648" data-name="Path 4648" d="M445.8,236.14a1.357,1.357,0,0,1,1.791-.814c.849.173,1.7.344,2.539.555a1.181,1.181,0,0,1,.991,1.276,1.164,1.164,0,0,1-1.387,1.04,25,25,0,0,1-2.942-.638c-.379-.115-.664-.54-.992-.824Q445.8,236.437,445.8,236.14Z" transform="translate(0 -91.948)" fill="#fec82e"/>
        <path id="Path_4650" data-name="Path 4650" d="M471.592,189.7a5.528,5.528,0,0,1,1.05.7c.625.684,1.205,1.409,1.777,2.139a1.184,1.184,0,0,1-.122,1.781,1.224,1.224,0,0,1-1.726-.289q-.9-1.059-1.769-2.146a1.073,1.073,0,0,1-.185-1.314A5.383,5.383,0,0,1,471.592,189.7Z" transform="translate(-20.996 -53.165)" fill="#fec82e"/>
        <path id="Path_4651" data-name="Path 4651" d="M455.662,278.031a2.92,2.92,0,0,1-.7.816,29.146,29.146,0,0,1-2.631,1.345,1.172,1.172,0,0,1-1.582-.492,1.136,1.136,0,0,1,.474-1.581c.913-.506,1.843-.988,2.8-1.4C454.823,276.37,455.656,276.944,455.662,278.031Z" transform="translate(-4.088 -127.163)" fill="#fec82e"/>
        <path id="Path_4652" data-name="Path 4652" d="M546.653,373.73c0,1.009.008,2.018,0,3.027-.009.838-.459,1.357-1.158,1.369-.724.013-1.213-.516-1.219-1.382q-.02-3.027,0-6.054c.005-.86.5-1.41,1.2-1.407s1.167.545,1.174,1.42C546.659,371.712,546.653,372.721,546.653,373.73Z" transform="translate(-83.833 -206.061)" fill="#fec82e"/>
        <path id="Path_4653" data-name="Path 4653" d="M545.936,340.878a1.172,1.172,0,0,1-.054-2.342,1.172,1.172,0,0,1,.054,2.342Z" transform="translate(-84.27 -179.882)" fill="#fec82e"/>
      </g>
    </g>
  </g>
</svg>
