<svg xmlns="http://www.w3.org/2000/svg" width="133.908" height="107.732" viewBox="0 0 133.908 107.732">
  <g id="Group_1741" data-name="Group 1741" transform="translate(-214 -2048)">
    <g id="Group_1738" data-name="Group 1738" transform="translate(214 2048)">
      <path id="Path_4798" data-name="Path 4798" d="M277.536,346.4a26.864,26.864,0,0,1-2.779,3.967c-1.351,1.357-3.27,1.476-5.134,1.476q-50.91-.007-101.82,0c-5.446,0-10.893-.071-16.338.02-5.31.089-7.857-3.721-7.836-7.75q.164-31.5,0-63a7.4,7.4,0,0,1,7.757-7.687q58.752.115,117.5,0c4.262-.008,7.249,1.355,8.645,5.524Zm-67-.2h58.937c2.359,0,2.548-.184,2.548-2.5q0-31.1,0-62.2c0-2.2-.282-2.486-2.472-2.486q-58.937,0-117.874,0c-2.2,0-2.482.282-2.482,2.476q0,31.1,0,62.2c0,2.319.191,2.507,2.538,2.507Z" transform="translate(-143.629 -273.422)" fill="#96b396"/>
      <path id="Path_4799" data-name="Path 4799" d="M277.655,536.105c-.772,1.645-2.142,2.066-3.851,2.063-16.73-.025-33.46-.007-50.191-.034a1.714,1.714,0,0,0-1.973,1.306,10.846,10.846,0,0,1-20.192-.077c-.379-1.046-.889-1.23-1.872-1.229q-25.88.04-51.759.01a8.5,8.5,0,0,1-2.063-.221,2.686,2.686,0,0,1,.195-5.212,9.882,9.882,0,0,1,1.941-.174q25.814-.013,51.629.014a1.725,1.725,0,0,0,1.962-1.312,10.841,10.841,0,0,1,20.155-.031,1.725,1.725,0,0,0,1.949,1.345c16.73-.032,33.46-.014,50.191-.035,1.689,0,3.079.4,3.879,2.019Zm-71.425-.761a5.343,5.343,0,0,0,5.369,5.367,5.445,5.445,0,0,0,5.353-5.307,5.379,5.379,0,0,0-5.361-5.4A5.256,5.256,0,0,0,206.23,535.344Z" transform="translate(-143.747 -438.551)" fill="#96b396"/>
      <path id="Path_4800" data-name="Path 4800" d="M293.2,347.154q0-8.558,0-17.117c0-.348,0-.7,0-1.045a2.857,2.857,0,0,1,4.8-2.4q6.22,4.433,12.451,8.851T322.9,344.3c2.639,1.88,2.625,3.752-.048,5.655q-12.287,8.744-24.571,17.491c-1.085.774-2.152,1.334-3.486.661-1.382-.7-1.6-1.946-1.594-3.314Q293.206,355.975,293.2,347.154Zm24.041-.045-18.315-13.017v26.053Z" transform="translate(-242.044 -307.901)" fill="#96b396"/>
    </g>
  </g>
</svg>
