<svg xmlns="http://www.w3.org/2000/svg" width="66.931" height="77.376" viewBox="0 0 66.931 77.376">
  <g id="Group_1172" data-name="Group 1172" transform="translate(-511 -2062)">
    <g id="Group_1171" data-name="Group 1171" transform="translate(511 2062)">
      <path id="Path_3857" data-name="Path 3857" d="M545.45,244.158c-1.758-.325-3.482-.538-5.147-.974a27.12,27.12,0,0,1-10.723-5.8c-.9-.769-.871-1.559.085-2.353a27.378,27.378,0,0,1,12.944-6.251,1.5,1.5,0,0,0,.239-.108c-.117-.2-.221-.393-.343-.575a28.005,28.005,0,0,1-4.528-13.258c-.126-1.317.5-1.869,1.831-1.738a27.8,27.8,0,0,1,13.758,4.948c.135-.634.244-1.2.379-1.765a28.212,28.212,0,0,1,5.958-11.55,1.377,1.377,0,0,1,2.413-.023,27.426,27.426,0,0,1,6.235,12.885,1.26,1.26,0,0,0,.082.256c1.827-.924,3.6-1.915,5.446-2.732a27.018,27.018,0,0,1,8.56-2.035c1.135-.1,1.739.517,1.626,1.721a27.976,27.976,0,0,1-4.5,13.267c-.117.175-.228.355-.406.634.326.062.577.106.826.157a27.867,27.867,0,0,1,12.448,6.22c.942.793.907,1.587-.091,2.407-4.542,3.734-9.6,6.235-15.586,6.5-.043,0-.083.045-.182.1,2.358,2.73,2.96,6.25,4.261,9.455.226.556.449.777,1.07.771,3.565-.033,7.131-.017,10.7-.015,1.42,0,1.877.5,1.761,1.921a7.69,7.69,0,0,1-7.455,7.086c-3.886.06-7.775.012-11.662.023a1.474,1.474,0,0,1-1.464-1.029c-.787-1.813-1.6-3.614-2.565-5.41v.665c0,2.391-.017,4.782.018,7.172a1.708,1.708,0,0,0,.414,1.04c.891.966,1.819,1.9,2.785,2.791a1.508,1.508,0,0,0,1.045.351c3.253-.318,6.5-.68,9.751-1.038a6.847,6.847,0,0,1,7.678,5.134,6.708,6.708,0,0,1-4.224,7.908,8.378,8.378,0,0,1-2.75.445q-25.014.038-50.027.017c-4.264,0-7.351-3.1-7.154-7.176.192-3.968,3.66-6.771,7.85-6.333,3.278.343,6.553.713,9.832,1.032a1.4,1.4,0,0,0,.969-.338c.982-.913,1.922-1.873,2.85-2.841a1.238,1.238,0,0,0,.352-.749c.025-2.685.016-5.37.016-8.267-.191.335-.3.493-.377.666-.723,1.615-1.462,3.223-2.151,4.853a1.6,1.6,0,0,1-1.659,1.111c-3.727-.023-7.453.007-11.18-.015a7.713,7.713,0,0,1-7.755-6.857c-.221-1.625.25-2.164,1.894-2.165,3.539,0,7.078-.015,10.617.015a.834.834,0,0,0,.964-.691c.258-.845.584-1.67.9-2.5C543,248.686,543.6,246.087,545.45,244.158Zm-15,12.719a4.994,4.994,0,0,0,4.845,3.86c2.761.03,5.523.011,8.285.007.83,0,1.859.274,2.435-.115.608-.41.8-1.457,1.145-2.237q1.852-4.15,3.687-8.308a1.305,1.305,0,0,1,2.548.518c0,.188,0,.376,0,.564,0,4.164.023,8.328-.007,12.492-.024,3.417.437,2.279-1.939,4.734-.263.272-.53.54-.874.891.329.066.483.11.64.127,2.1.224,4.209.454,6.316.664a23.773,23.773,0,0,0,6.084.145c1.851-.288,3.727-.414,5.592-.617.778-.085,1.555-.182,2.5-.295-.86-.858-1.61-1.547-2.282-2.306a2.041,2.041,0,0,1-.562-1.18c-.037-5.1-.025-10.208-.024-15.312a1.267,1.267,0,0,1,.89-1.3c.687-.248,1.3.1,1.685.959,1.473,3.307,2.948,6.612,4.393,9.931a.921.921,0,0,0,1.006.659c3.271-.03,6.542-.008,9.813-.022a6.762,6.762,0,0,0,1.511-.168,4.669,4.669,0,0,0,3.574-3.693c-3.648,0-7.293-.013-10.938.009a1.561,1.561,0,0,1-1.682-1.171c-.809-2.3-1.657-4.589-2.506-6.876a8.946,8.946,0,0,0-8.8-6.147q-6.676-.01-13.352,0a8.949,8.949,0,0,0-8.792,6.158c-.813,2.186-1.6,4.382-2.4,6.573-.476,1.307-.677,1.452-2.041,1.452ZM555.567,278.8h14.149c2.01,0,4.02.02,6.03-.011a2.093,2.093,0,0,0,.155-4.181q-8.428-.9-16.858-1.782-8.03-.851-16.059-1.707c-2.37-.25-4.739-.539-7.115-.7a4.07,4.07,0,0,0-4.181,2.978,4.2,4.2,0,0,0,4.1,5.4C542.382,278.813,548.975,278.8,555.567,278.8Zm5.589-44.609c3.143-4.364,5.391-8.97,5.064-14.426-.28-4.67-2.294-8.68-5.069-12.4C554.316,216.277,554.278,225.19,561.156,234.192Zm-3,.37c-.259-.4-.415-.646-.57-.889a24.5,24.5,0,0,1-4.1-11.463,2.154,2.154,0,0,0-.917-1.654,21.651,21.651,0,0,0-8.006-3.96c-1.248-.339-2.526-.565-3.922-.871.809,5.1,2.334,9.681,5.955,13.275C549.748,232.125,553.7,233.67,558.158,234.562Zm6.081-.023c4.666-.981,8.9-2.654,12.095-6.276,3.114-3.532,4.542-7.8,5.232-12.47-.692.117-1.269.2-1.839.313a22.922,22.922,0,0,0-10.286,4.641,1.555,1.555,0,0,0-.667,1.2,20.7,20.7,0,0,1-1.919,7.6C566.078,231.207,565.152,232.806,564.239,234.539Zm25.709,1.672a23.752,23.752,0,0,0-12.221-5.059,1.375,1.375,0,0,0-.924.3,22.84,22.84,0,0,1-7.838,4.471c-1.427.481-2.893.846-4.349,1.266C572.62,242.935,581.233,242.906,589.948,236.211Zm-32.127.949c-.322-.072-.442-.1-.563-.125-3.847-.8-7.545-2.063-10.559-4.629a4.449,4.449,0,0,0-4.447-.955c-.156.041-.312.076-.469.113a25.57,25.57,0,0,0-9.528,4.688c4.16,3.042,8.544,5.207,13.731,5.13C550.324,241.318,554.112,239.617,557.822,237.16Zm16.307,34.531c5.531.893,6.981,2.607,5.878,7.089,2.333,0,4.661.1,6.978-.028a4.107,4.107,0,0,0,3.734-4.213c-.031-2.667-2.275-4.412-5.211-4.081-2.473.279-4.95.523-7.425.788C576.764,271.386,575.447,271.541,574.129,271.69Zm-15.881-31.649H564c-.92-.664-1.734-1.268-2.57-1.84a.61.61,0,0,0-.542-.054C560.019,238.741,559.174,239.371,558.248,240.042Z" transform="translate(-527.648 -204.005)" fill="#fec82e"/>
      <path id="Path_3858" data-name="Path 3858" d="M670.017,364.595c.926-.671,1.772-1.3,2.642-1.894a.61.61,0,0,1,.542.054c.836.572,1.65,1.176,2.57,1.84Z" transform="translate(-639.417 -328.558)" fill="#fec82e"/>
      <path id="Path_3859" data-name="Path 3859" d="M677.656,396.161h2.472v2.479h-2.472Z" transform="translate(-645.414 -354.86)" fill="#fec82e"/>
      <path id="Path_3860" data-name="Path 3860" d="M677.553,422.746v-2.479h2.488v2.479Z" transform="translate(-645.333 -373.785)" fill="#fec82e"/>
      <path id="Path_3861" data-name="Path 3861" d="M677.563,446.752v-2.475h2.484v2.475Z" transform="translate(-645.341 -392.635)" fill="#fec82e"/>
    </g>
  </g>
</svg>
