<svg xmlns="http://www.w3.org/2000/svg" width="81.612" height="70.755" viewBox="0 0 81.612 70.755">
  <g id="Group_1170" data-name="Group 1170" transform="translate(-862.388 -2051.845)">
    <g id="Group_1169" data-name="Group 1169" transform="translate(862.388 2051.845)">
      <path id="Path_3849" data-name="Path 3849" d="M1127.383,731.064a77.867,77.867,0,0,1,13.924-14.69,53.37,53.37,0,0,1,15.27-9.033c9.147-3.388,18.065-2.66,26.784,1.508a65.09,65.09,0,0,1,19.4,14.762c2.008,2.15,3.83,4.474,5.7,6.747a1.57,1.57,0,0,1,.054,2.306c-6.2,8.12-13.436,15.109-22.4,20.146-6.1,3.429-12.6,5.425-19.694,5.028a36.123,36.123,0,0,1-14.363-4.061A67.675,67.675,0,0,1,1132.241,738c-1.71-1.913-3.244-3.984-4.858-5.983Zm40.779,23.634a31.293,31.293,0,0,0,13.725-3.318c9.373-4.5,16.72-11.429,23.179-19.417a.579.579,0,0,0-.038-.883c-1.121-1.311-2.19-2.669-3.347-3.947a65.418,65.418,0,0,0-18.413-14.756,33.709,33.709,0,0,0-13.328-3.939,31.8,31.8,0,0,0-17.043,4.042c-8.618,4.522-15.5,11.078-21.565,18.574a.661.661,0,0,0,.039,1.014c1.072,1.249,2.093,2.542,3.194,3.764a65.641,65.641,0,0,0,18.309,14.761A32.792,32.792,0,0,0,1168.162,754.7Z" transform="translate(-1127.383 -696.165)" fill="#fec82e"/>
      <path id="Path_3850" data-name="Path 3850" d="M1314.641,665.616c0,.423.03.849-.006,1.269a1.555,1.555,0,0,1-1.58,1.465,1.533,1.533,0,0,1-1.574-1.467,24.663,24.663,0,0,1,0-2.7,1.537,1.537,0,0,1,1.531-1.429,1.559,1.559,0,0,1,1.613,1.432c.045.472.008.951.008,1.428Z" transform="translate(-1272.265 -662.756)" fill="#fec82e"/>
      <path id="Path_3851" data-name="Path 3851" d="M1314.644,971.682c0,.423.027.849,0,1.27a1.568,1.568,0,0,1-1.625,1.506,1.552,1.552,0,0,1-1.535-1.514c-.039-.871-.044-1.748,0-2.618a1.531,1.531,0,0,1,1.579-1.46,1.551,1.551,0,0,1,1.575,1.469C1314.674,970.78,1314.644,971.232,1314.644,971.682Z" transform="translate(-1272.267 -903.703)" fill="#fec82e"/>
      <path id="Path_3852" data-name="Path 3852" d="M1201.506,704.511c-1.125-.178-3.542-2.5-3.408-3.463a2,2,0,0,1,.87-1.359,1.838,1.838,0,0,1,1.6.119,8.822,8.822,0,0,1,2.058,2.065,1.91,1.91,0,0,1,.114,1.6C1202.547,703.912,1201.933,704.172,1201.506,704.511Z" transform="translate(-1183.041 -691.725)" fill="#fec82e"/>
      <path id="Path_3853" data-name="Path 3853" d="M1418.9,704.086c-.432-.334-1.05-.585-1.245-1.024a1.892,1.892,0,0,1,.1-1.6,12.959,12.959,0,0,1,2.1-2.143,1.5,1.5,0,0,1,1.907.094,1.443,1.443,0,0,1,.344,1.928,26.8,26.8,0,0,1-2.4,2.4c-.153.143-.439.144-.664.211Z" transform="translate(-1355.759 -691.3)" fill="#fec82e"/>
      <path id="Path_3854" data-name="Path 3854" d="M1201.253,935.073c.432.333,1.05.584,1.245,1.023a1.893,1.893,0,0,1-.1,1.6,12.939,12.939,0,0,1-2.1,2.143,1.5,1.5,0,0,1-1.907-.093,1.417,1.417,0,0,1-.381-1.856,29.114,29.114,0,0,1,2.5-2.506c.133-.126.395-.116.6-.169Z" transform="translate(-1182.809 -877.105)" fill="#fec82e"/>
      <path id="Path_3855" data-name="Path 3855" d="M1418.861,935.1c1.115.158,3.543,2.45,3.43,3.429a1.99,1.99,0,0,1-.843,1.373,1.814,1.814,0,0,1-1.6-.085,9.171,9.171,0,0,1-2.11-2.124,1.931,1.931,0,0,1-.069-1.6C1417.851,935.666,1418.448,935.421,1418.861,935.1Z" transform="translate(-1355.769 -877.125)" fill="#fec82e"/>
      <path id="Path_3856" data-name="Path 3856" d="M1266.572,757.132a19.438,19.438,0,1,1-19.337-19.5A19.476,19.476,0,0,1,1266.572,757.132Zm-3.057,1.106c-1.3.144-2.293.314-3.3.355a7.754,7.754,0,0,1-7.008-3c-.431-.572-.882-1.132-1.367-1.659a1.934,1.934,0,0,0-2.646-.459,15.471,15.471,0,0,1-1.593.894,5.692,5.692,0,0,1-2.2.55,7.312,7.312,0,0,1-6.233-4.976,11.7,11.7,0,0,1-.239-5.2c.077-.556.162-1.112.268-1.833a16.06,16.06,0,0,0-5.171,4.577c.216.182.394.334.573.483a9.335,9.335,0,0,1,3.362,5.7,24,24,0,0,1,.23,2.854,8.57,8.57,0,0,0,2.17,5.672,10.968,10.968,0,0,1,.883,1.128,3.521,3.521,0,0,1-.677,5.26c-.817.667-1.738,1.208-2.751,1.9,1.073.548,2.093,1.089,3.135,1.581a.868.868,0,0,0,.643-.122,11.688,11.688,0,0,0,5.3-5.513,19.137,19.137,0,0,1,2.791-4.214,5.739,5.739,0,0,1,4.442-2,8.985,8.985,0,0,1,5.254,1.81c.832.563,1.634,1.171,2.669,1.916Zm-.323-3.308a2.989,2.989,0,0,0,0-.391A16.248,16.248,0,0,0,1244.2,741.1c-1.441.262-1.494.255-1.677,1.719a42.92,42.92,0,0,0-.459,5.282,3.75,3.75,0,0,0,2.18,3.2c1.179.7,2.059.2,3.051-.4,2.667-1.612,5.211-1.144,7.228,1.25q.743.882,1.468,1.781a3.974,3.974,0,0,0,2.588,1.41A11.686,11.686,0,0,0,1263.192,754.93Zm-2.926,11.562c-1.4-.9-2.735-1.906-4.205-2.656a3.323,3.323,0,0,0-4.528,1.049,17.187,17.187,0,0,0-1.871,3.122,13.859,13.859,0,0,1-3.6,4.792,3.882,3.882,0,0,0-.355.4A15.87,15.87,0,0,0,1260.266,766.492Zm-27.85-16.189a15.965,15.965,0,0,0,2.88,17.8.823.823,0,0,0,.224-.057c.777-.457,1.562-.9,2.323-1.383,1.3-.823,1.334-.922.349-2.073a11.284,11.284,0,0,1-2.971-6.128c-.143-1.291-.194-2.592-.343-3.882A6.258,6.258,0,0,0,1232.416,750.3Z" transform="translate(-1206.343 -721.695)" fill="#fec82e"/>
    </g>
  </g>
</svg>
