<svg xmlns="http://www.w3.org/2000/svg" width="139.03" height="91.454" viewBox="0 0 139.03 91.454">
  <path id="Union_20" data-name="Union 20" d="M221.826,4136.033c-16.562-8.863-30.441-3.661-46.344-.379s-20.187-5.117-20.281-5.387a1.734,1.734,0,0,1,2.04-2.333c2.583.2,5.938,6.432,20.569,1.521s26.861-8.216,45.31,1.424,40.336,7.982,51,.613S290.987,4120,292.8,4120.614s1.709,2.344.186,3.763a152.364,152.364,0,0,1-15.55,10.986c-6.86,4.272-10.033,5.52-19.589,6.8a57.747,57.747,0,0,1-7.687.5C239.882,4142.667,229.46,4140.12,221.826,4136.033Zm-1.638-12.351c-18.175-10.475-32.67-6.055-44.805-.587s-17.938,1.5-19.158-1.461-.418-7.042,3.151-6.231,23.72,6.426,32.435-23.969,28.368-43.812,52.776-39.4c15.279,2.762,23,17.721,19.94,27-1.725,5.24-8.974,9.752-9.022,5.653s-4.79-13.206-16.806-8.438c-6.236,2.474-9.043,7.863-10,13.293-.811,4.589-.133,9.045,3.3,15.773a27.818,27.818,0,0,0,39.649,10.546c14.345-9,19.975-6.995,21.277-6.352s1.94,3.047-.371,4.563-3.531-.605-17.676,9.181c-7.34,5.078-16.9,7.82-26.931,7.82A55.787,55.787,0,0,1,220.188,4123.682Z" transform="translate(-155.11 -4051.213)" fill="#0f5a0f"/>
</svg>
